  0
SECTION
  2
HEADER
  9
$ANGBASE
  50
0.0
  9
$ANGDIR
  70
  1
  9
$MEASUREMENT
  70
0
  0
ENDSEC
  0
SECTION
  2
TABLES
  0
TABLE
  2
LTYPE
  70
4
  0
LTYPE
  5
40F
  2
CONTINUOUS
  70
0
  3
Solid line
  72
65
  73
0
  40
0.0
  0
LTYPE
  5
410
  2
DASHDOT
 70
0
  3
Dash Dot ____ _ ____ _
 72
65
 73
4
 40
2.0
 49
1.25
 49
-0.25
 49
0.25
 49
-0.25
  0
LTYPE
  5
411
  2
DASHED
 70
0
  3
Dashed __ __ __ __ __
 72
65
 73
2
 40
0.75
 49
0.5
 49
-0.25
  0
LTYPE
  5
43B
  2
DOTTED
 70
0
  3
Dotted .  .  .  .
 72
65
 73
2
 40
0.2
 49
0.0
 49
-0.2
  0
ENDTAB
  0
TABLE
  2
STYLE
  70
4
  0
STYLE
  2
KICAD
  70
0
  40
0
  41
1
  42
1
  50
0
  71
0
  3
isocp.shx
  0
STYLE
  2
KICADB
  70
0
  40
0
  41
1
  42
1
  50
0
  71
0
  3
isocp.shx
  0
STYLE
  2
KICADI
  70
0
  40
0
  41
1
  42
1
  50
15
  71
0
  3
isocp.shx
  0
STYLE
  2
KICADBI
  70
0
  40
0
  41
1
  42
1
  50
15
  71
0
  3
isocp.shx
  0
ENDTAB
  0
TABLE
  2
LAYER
  70
30
  0
LAYER
  2
BLACK
  70
0
  62
7
  6
CONTINUOUS
  0
LAYER
  2
GRAY1
  70
0
  62
251
  6
CONTINUOUS
  0
LAYER
  2
GRAY2
  70
0
  62
8
  6
CONTINUOUS
  0
LAYER
  2
GRAY3
  70
0
  62
9
  6
CONTINUOUS
  0
LAYER
  2
WHITE
  70
0
  62
7
  6
CONTINUOUS
  0
LAYER
  2
LYELLOW
  70
0
  62
51
  6
CONTINUOUS
  0
LAYER
  2
BLUE1
  70
0
  62
178
  6
CONTINUOUS
  0
LAYER
  2
GREEN1
  70
0
  62
98
  6
CONTINUOUS
  0
LAYER
  2
CYAN1
  70
0
  62
138
  6
CONTINUOUS
  0
LAYER
  2
RED1
  70
0
  62
18
  6
CONTINUOUS
  0
LAYER
  2
MAGENTA1
  70
0
  62
228
  6
CONTINUOUS
  0
LAYER
  2
BROWN1
  70
0
  62
58
  6
CONTINUOUS
  0
LAYER
  2
BLUE2
  70
0
  62
5
  6
CONTINUOUS
  0
LAYER
  2
GREEN2
  70
0
  62
3
  6
CONTINUOUS
  0
LAYER
  2
CYAN2
  70
0
  62
4
  6
CONTINUOUS
  0
LAYER
  2
RED2
  70
0
  62
1
  6
CONTINUOUS
  0
LAYER
  2
MAGENTA2
  70
0
  62
6
  6
CONTINUOUS
  0
LAYER
  2
BROWN2
  70
0
  62
54
  6
CONTINUOUS
  0
LAYER
  2
BLUE3
  70
0
  62
171
  6
CONTINUOUS
  0
LAYER
  2
GREEN3
  70
0
  62
91
  6
CONTINUOUS
  0
LAYER
  2
CYAN3
  70
0
  62
131
  6
CONTINUOUS
  0
LAYER
  2
RED3
  70
0
  62
11
  6
CONTINUOUS
  0
LAYER
  2
MAGENTA3
  70
0
  62
221
  6
CONTINUOUS
  0
LAYER
  2
YELLOW3
  70
0
  62
2
  6
CONTINUOUS
  0
LAYER
  2
BLUE4
  70
0
  62
5
  6
CONTINUOUS
  0
LAYER
  2
GREEN4
  70
0
  62
3
  6
CONTINUOUS
  0
LAYER
  2
CYAN4
  70
0
  62
4
  6
CONTINUOUS
  0
LAYER
  2
RED4
  70
0
  62
1
  6
CONTINUOUS
  0
LAYER
  2
MAGENTA4
  70
0
  62
6
  6
CONTINUOUS
  0
LAYER
  2
YELLOW4
  70
0
  62
2
  6
CONTINUOUS
  0
ENDTAB
  0
ENDSEC
  0
SECTION
  2
ENTITIES
0
LINE
8
BLACK
6
CONTINUOUS
10
183.282
20
-122.395
11
183.053
21
-122.824
0
LINE
8
BLACK
6
CONTINUOUS
10
183.053
20
-122.824
11
182.745
21
-123.202
0
LINE
8
BLACK
6
CONTINUOUS
10
182.745
20
-123.202
11
182.37
21
-123.512
0
LINE
8
BLACK
6
CONTINUOUS
10
182.37
20
-123.512
11
181.942
21
-123.744
0
LINE
8
BLACK
6
CONTINUOUS
10
181.942
20
-123.744
11
181.477
21
-123.888
0
LINE
8
BLACK
6
CONTINUOUS
10
181.477
20
-123.888
11
180.992
21
-123.939
0
LINE
8
BLACK
6
CONTINUOUS
10
180.992
20
-123.939
11
180.507
21
-123.895
0
LINE
8
BLACK
6
CONTINUOUS
10
180.507
20
-123.895
11
180.04
21
-123.757
0
LINE
8
BLACK
6
CONTINUOUS
10
180.04
20
-123.757
11
179.609
21
-123.531
0
LINE
8
BLACK
6
CONTINUOUS
10
179.609
20
-123.531
11
179.229
21
-123.226
0
LINE
8
BLACK
6
CONTINUOUS
10
179.229
20
-123.226
11
178.916
21
-122.853
0
LINE
8
BLACK
6
CONTINUOUS
10
178.916
20
-122.853
11
178.682
21
-122.427
0
LINE
8
BLACK
6
CONTINUOUS
10
178.682
20
-122.427
11
178.535
21
-121.962
0
LINE
8
BLACK
6
CONTINUOUS
10
178.535
20
-121.962
11
178.48
21
-121.479
0
LINE
8
BLACK
6
CONTINUOUS
10
178.48
20
-121.479
11
178.521
21
-120.993
0
LINE
8
BLACK
6
CONTINUOUS
10
178.521
20
-120.993
11
178.655
21
-120.525
0
LINE
8
BLACK
6
CONTINUOUS
10
178.655
20
-120.525
11
178.878
21
-120.092
0
LINE
8
BLACK
6
CONTINUOUS
10
178.878
20
-120.092
11
179.18
21
-119.711
0
LINE
8
BLACK
6
CONTINUOUS
10
179.18
20
-119.711
11
179.551
21
-119.395
0
LINE
8
BLACK
6
CONTINUOUS
10
179.551
20
-119.395
11
179.976
21
-119.157
0
LINE
8
BLACK
6
CONTINUOUS
10
179.976
20
-119.157
11
180.439
21
-119.007
0
LINE
8
BLACK
6
CONTINUOUS
10
180.439
20
-119.007
11
180.923
21
-118.949
0
LINE
8
BLACK
6
CONTINUOUS
10
180.923
20
-118.949
11
181.408
21
-118.987
0
LINE
8
BLACK
6
CONTINUOUS
10
181.408
20
-118.987
11
181.877
21
-119.118
0
LINE
8
BLACK
6
CONTINUOUS
10
181.877
20
-119.118
11
182.312
21
-119.337
0
LINE
8
BLACK
6
CONTINUOUS
10
182.312
20
-119.337
11
182.696
21
-119.637
0
LINE
8
BLACK
6
CONTINUOUS
10
182.696
20
-119.637
11
183.014
21
-120.006
0
LINE
8
BLACK
6
CONTINUOUS
10
183.014
20
-120.006
11
183.254
21
-120.429
0
LINE
8
BLACK
6
CONTINUOUS
10
183.254
20
-120.429
11
183.408
21
-120.891
0
LINE
8
BLACK
6
CONTINUOUS
10
183.408
20
-120.891
11
183.469
21
-121.374
0
LINE
8
BLACK
6
CONTINUOUS
10
183.469
20
-121.374
11
183.47
21
-121.444
0
LINE
8
BLACK
6
CONTINUOUS
10
183.47
20
-121.444
11
183.422
21
-121.928
0
LINE
8
BLACK
6
CONTINUOUS
10
183.422
20
-121.928
11
183.282
21
-122.395
0
LINE
8
BLACK
6
CONTINUOUS
10
183.217
20
-120.52
11
182.995
21
-120.102
0
LINE
8
BLACK
6
CONTINUOUS
10
182.995
20
-120.102
11
182.696
21
-119.735
0
LINE
8
BLACK
6
CONTINUOUS
10
182.696
20
-119.735
11
182.331
21
-119.433
0
LINE
8
BLACK
6
CONTINUOUS
10
182.331
20
-119.433
11
181.915
21
-119.208
0
LINE
8
BLACK
6
CONTINUOUS
10
181.915
20
-119.208
11
181.463
21
-119.068
0
LINE
8
BLACK
6
CONTINUOUS
10
181.463
20
-119.068
11
180.992
21
-119.019
0
LINE
8
BLACK
6
CONTINUOUS
10
180.992
20
-119.019
11
180.521
21
-119.062
0
LINE
8
BLACK
6
CONTINUOUS
10
180.521
20
-119.062
11
180.067
21
-119.195
0
LINE
8
BLACK
6
CONTINUOUS
10
180.067
20
-119.195
11
179.647
21
-119.415
0
LINE
8
BLACK
6
CONTINUOUS
10
179.647
20
-119.415
11
179.278
21
-119.711
0
LINE
8
BLACK
6
CONTINUOUS
10
179.278
20
-119.711
11
178.974
21
-120.074
0
LINE
8
BLACK
6
CONTINUOUS
10
178.974
20
-120.074
11
178.746
21
-120.488
0
LINE
8
BLACK
6
CONTINUOUS
10
178.746
20
-120.488
11
178.603
21
-120.94
0
LINE
8
BLACK
6
CONTINUOUS
10
178.603
20
-120.94
11
178.55
21
-121.41
0
LINE
8
BLACK
6
CONTINUOUS
10
178.55
20
-121.41
11
178.59
21
-121.882
0
LINE
8
BLACK
6
CONTINUOUS
10
178.59
20
-121.882
11
178.72
21
-122.336
0
LINE
8
BLACK
6
CONTINUOUS
10
178.72
20
-122.336
11
178.937
21
-122.757
0
LINE
8
BLACK
6
CONTINUOUS
10
178.937
20
-122.757
11
179.231
21
-123.128
0
LINE
8
BLACK
6
CONTINUOUS
10
179.231
20
-123.128
11
179.591
21
-123.435
0
LINE
8
BLACK
6
CONTINUOUS
10
179.591
20
-123.435
11
180.004
21
-123.666
0
LINE
8
BLACK
6
CONTINUOUS
10
180.004
20
-123.666
11
180.454
21
-123.812
0
LINE
8
BLACK
6
CONTINUOUS
10
180.454
20
-123.812
11
180.924
21
-123.868
0
LINE
8
BLACK
6
CONTINUOUS
10
180.924
20
-123.868
11
181.396
21
-123.832
0
LINE
8
BLACK
6
CONTINUOUS
10
181.396
20
-123.832
11
181.852
21
-123.705
0
LINE
8
BLACK
6
CONTINUOUS
10
181.852
20
-123.705
11
182.274
21
-123.491
0
LINE
8
BLACK
6
CONTINUOUS
10
182.274
20
-123.491
11
182.647
21
-123.2
0
LINE
8
BLACK
6
CONTINUOUS
10
182.647
20
-123.2
11
182.957
21
-122.842
0
LINE
8
BLACK
6
CONTINUOUS
10
182.957
20
-122.842
11
183.19
21
-122.43
0
LINE
8
BLACK
6
CONTINUOUS
10
183.19
20
-122.43
11
183.34
21
-121.981
0
LINE
8
BLACK
6
CONTINUOUS
10
183.34
20
-121.981
11
183.399
21
-121.511
0
LINE
8
BLACK
6
CONTINUOUS
10
183.399
20
-121.511
11
183.4
21
-121.444
0
LINE
8
BLACK
6
CONTINUOUS
10
183.4
20
-121.444
11
183.354
21
-120.973
0
LINE
8
BLACK
6
CONTINUOUS
10
183.354
20
-120.973
11
183.217
21
-120.52
0
LINE
8
BLACK
6
CONTINUOUS
10
240.432
20
-122.395
11
240.203
21
-122.824
0
LINE
8
BLACK
6
CONTINUOUS
10
240.203
20
-122.824
11
239.895
21
-123.202
0
LINE
8
BLACK
6
CONTINUOUS
10
239.895
20
-123.202
11
239.52
21
-123.512
0
LINE
8
BLACK
6
CONTINUOUS
10
239.52
20
-123.512
11
239.092
21
-123.744
0
LINE
8
BLACK
6
CONTINUOUS
10
239.092
20
-123.744
11
238.627
21
-123.888
0
LINE
8
BLACK
6
CONTINUOUS
10
238.627
20
-123.888
11
238.142
21
-123.939
0
LINE
8
BLACK
6
CONTINUOUS
10
238.142
20
-123.939
11
237.657
21
-123.895
0
LINE
8
BLACK
6
CONTINUOUS
10
237.657
20
-123.895
11
237.19
21
-123.757
0
LINE
8
BLACK
6
CONTINUOUS
10
237.19
20
-123.757
11
236.759
21
-123.531
0
LINE
8
BLACK
6
CONTINUOUS
10
236.759
20
-123.531
11
236.379
21
-123.226
0
LINE
8
BLACK
6
CONTINUOUS
10
236.379
20
-123.226
11
236.066
21
-122.853
0
LINE
8
BLACK
6
CONTINUOUS
10
236.066
20
-122.853
11
235.832
21
-122.427
0
LINE
8
BLACK
6
CONTINUOUS
10
235.832
20
-122.427
11
235.685
21
-121.962
0
LINE
8
BLACK
6
CONTINUOUS
10
235.685
20
-121.962
11
235.63
21
-121.479
0
LINE
8
BLACK
6
CONTINUOUS
10
235.63
20
-121.479
11
235.671
21
-120.993
0
LINE
8
BLACK
6
CONTINUOUS
10
235.671
20
-120.993
11
235.805
21
-120.525
0
LINE
8
BLACK
6
CONTINUOUS
10
235.805
20
-120.525
11
236.028
21
-120.092
0
LINE
8
BLACK
6
CONTINUOUS
10
236.028
20
-120.092
11
236.33
21
-119.711
0
LINE
8
BLACK
6
CONTINUOUS
10
236.33
20
-119.711
11
236.701
21
-119.395
0
LINE
8
BLACK
6
CONTINUOUS
10
236.701
20
-119.395
11
237.126
21
-119.157
0
LINE
8
BLACK
6
CONTINUOUS
10
237.126
20
-119.157
11
237.589
21
-119.007
0
LINE
8
BLACK
6
CONTINUOUS
10
237.589
20
-119.007
11
238.073
21
-118.949
0
LINE
8
BLACK
6
CONTINUOUS
10
238.073
20
-118.949
11
238.558
21
-118.987
0
LINE
8
BLACK
6
CONTINUOUS
10
238.558
20
-118.987
11
239.027
21
-119.118
0
LINE
8
BLACK
6
CONTINUOUS
10
239.027
20
-119.118
11
239.462
21
-119.337
0
LINE
8
BLACK
6
CONTINUOUS
10
239.462
20
-119.337
11
239.846
21
-119.637
0
LINE
8
BLACK
6
CONTINUOUS
10
239.846
20
-119.637
11
240.164
21
-120.006
0
LINE
8
BLACK
6
CONTINUOUS
10
240.164
20
-120.006
11
240.404
21
-120.429
0
LINE
8
BLACK
6
CONTINUOUS
10
240.404
20
-120.429
11
240.558
21
-120.891
0
LINE
8
BLACK
6
CONTINUOUS
10
240.558
20
-120.891
11
240.619
21
-121.374
0
LINE
8
BLACK
6
CONTINUOUS
10
240.619
20
-121.374
11
240.62
21
-121.444
0
LINE
8
BLACK
6
CONTINUOUS
10
240.62
20
-121.444
11
240.572
21
-121.928
0
LINE
8
BLACK
6
CONTINUOUS
10
240.572
20
-121.928
11
240.432
21
-122.395
0
LINE
8
BLACK
6
CONTINUOUS
10
240.367
20
-120.52
11
240.145
21
-120.102
0
LINE
8
BLACK
6
CONTINUOUS
10
240.145
20
-120.102
11
239.846
21
-119.735
0
LINE
8
BLACK
6
CONTINUOUS
10
239.846
20
-119.735
11
239.481
21
-119.433
0
LINE
8
BLACK
6
CONTINUOUS
10
239.481
20
-119.433
11
239.065
21
-119.208
0
LINE
8
BLACK
6
CONTINUOUS
10
239.065
20
-119.208
11
238.613
21
-119.068
0
LINE
8
BLACK
6
CONTINUOUS
10
238.613
20
-119.068
11
238.142
21
-119.019
0
LINE
8
BLACK
6
CONTINUOUS
10
238.142
20
-119.019
11
237.671
21
-119.062
0
LINE
8
BLACK
6
CONTINUOUS
10
237.671
20
-119.062
11
237.217
21
-119.195
0
LINE
8
BLACK
6
CONTINUOUS
10
237.217
20
-119.195
11
236.797
21
-119.415
0
LINE
8
BLACK
6
CONTINUOUS
10
236.797
20
-119.415
11
236.428
21
-119.711
0
LINE
8
BLACK
6
CONTINUOUS
10
236.428
20
-119.711
11
236.124
21
-120.074
0
LINE
8
BLACK
6
CONTINUOUS
10
236.124
20
-120.074
11
235.896
21
-120.488
0
LINE
8
BLACK
6
CONTINUOUS
10
235.896
20
-120.488
11
235.753
21
-120.94
0
LINE
8
BLACK
6
CONTINUOUS
10
235.753
20
-120.94
11
235.7
21
-121.41
0
LINE
8
BLACK
6
CONTINUOUS
10
235.7
20
-121.41
11
235.74
21
-121.882
0
LINE
8
BLACK
6
CONTINUOUS
10
235.74
20
-121.882
11
235.87
21
-122.336
0
LINE
8
BLACK
6
CONTINUOUS
10
235.87
20
-122.336
11
236.087
21
-122.757
0
LINE
8
BLACK
6
CONTINUOUS
10
236.087
20
-122.757
11
236.381
21
-123.128
0
LINE
8
BLACK
6
CONTINUOUS
10
236.381
20
-123.128
11
236.741
21
-123.435
0
LINE
8
BLACK
6
CONTINUOUS
10
236.741
20
-123.435
11
237.154
21
-123.666
0
LINE
8
BLACK
6
CONTINUOUS
10
237.154
20
-123.666
11
237.604
21
-123.812
0
LINE
8
BLACK
6
CONTINUOUS
10
237.604
20
-123.812
11
238.074
21
-123.868
0
LINE
8
BLACK
6
CONTINUOUS
10
238.074
20
-123.868
11
238.546
21
-123.832
0
LINE
8
BLACK
6
CONTINUOUS
10
238.546
20
-123.832
11
239.002
21
-123.705
0
LINE
8
BLACK
6
CONTINUOUS
10
239.002
20
-123.705
11
239.424
21
-123.491
0
LINE
8
BLACK
6
CONTINUOUS
10
239.424
20
-123.491
11
239.797
21
-123.2
0
LINE
8
BLACK
6
CONTINUOUS
10
239.797
20
-123.2
11
240.107
21
-122.842
0
LINE
8
BLACK
6
CONTINUOUS
10
240.107
20
-122.842
11
240.34
21
-122.43
0
LINE
8
BLACK
6
CONTINUOUS
10
240.34
20
-122.43
11
240.49
21
-121.981
0
LINE
8
BLACK
6
CONTINUOUS
10
240.49
20
-121.981
11
240.549
21
-121.511
0
LINE
8
BLACK
6
CONTINUOUS
10
240.549
20
-121.511
11
240.55
21
-121.444
0
LINE
8
BLACK
6
CONTINUOUS
10
240.55
20
-121.444
11
240.504
21
-120.973
0
LINE
8
BLACK
6
CONTINUOUS
10
240.504
20
-120.973
11
240.367
21
-120.52
0
LINE
8
BLACK
6
CONTINUOUS
10
90.413
20
-112.87
11
90.1844
21
-113.299
0
LINE
8
BLACK
6
CONTINUOUS
10
90.1844
20
-113.299
11
89.8766
21
-113.677
0
LINE
8
BLACK
6
CONTINUOUS
10
89.8766
20
-113.677
11
89.5014
21
-113.987
0
LINE
8
BLACK
6
CONTINUOUS
10
89.5014
20
-113.987
11
89.0731
21
-114.219
0
LINE
8
BLACK
6
CONTINUOUS
10
89.0731
20
-114.219
11
88.6079
21
-114.363
0
LINE
8
BLACK
6
CONTINUOUS
10
88.6079
20
-114.363
11
88.1237
21
-114.414
0
LINE
8
BLACK
6
CONTINUOUS
10
88.1237
20
-114.414
11
87.6387
21
-114.37
0
LINE
8
BLACK
6
CONTINUOUS
10
87.6387
20
-114.37
11
87.1716
21
-114.232
0
LINE
8
BLACK
6
CONTINUOUS
10
87.1716
20
-114.232
11
86.7401
21
-114.006
0
LINE
8
BLACK
6
CONTINUOUS
10
86.7401
20
-114.006
11
86.3606
21
-113.701
0
LINE
8
BLACK
6
CONTINUOUS
10
86.3606
20
-113.701
11
86.0476
21
-113.328
0
LINE
8
BLACK
6
CONTINUOUS
10
86.0476
20
-113.328
11
85.813
21
-112.902
0
LINE
8
BLACK
6
CONTINUOUS
10
85.813
20
-112.902
11
85.6658
21
-112.437
0
LINE
8
BLACK
6
CONTINUOUS
10
85.6658
20
-112.437
11
85.6115
21
-111.954
0
LINE
8
BLACK
6
CONTINUOUS
10
85.6115
20
-111.954
11
85.6522
21
-111.468
0
LINE
8
BLACK
6
CONTINUOUS
10
85.6522
20
-111.468
11
85.7865
21
-111
0
LINE
8
BLACK
6
CONTINUOUS
10
85.7865
20
-111
11
86.009
21
-110.567
0
LINE
8
BLACK
6
CONTINUOUS
10
86.009
20
-110.567
11
86.3115
21
-110.186
0
LINE
8
BLACK
6
CONTINUOUS
10
86.3115
20
-110.186
11
86.6823
21
-109.87
0
LINE
8
BLACK
6
CONTINUOUS
10
86.6823
20
-109.87
11
87.1074
21
-109.632
0
LINE
8
BLACK
6
CONTINUOUS
10
87.1074
20
-109.632
11
87.5705
21
-109.482
0
LINE
8
BLACK
6
CONTINUOUS
10
87.5705
20
-109.482
11
88.054
21
-109.424
0
LINE
8
BLACK
6
CONTINUOUS
10
88.054
20
-109.424
11
88.5395
21
-109.462
0
LINE
8
BLACK
6
CONTINUOUS
10
88.5395
20
-109.462
11
89.0085
21
-109.593
0
LINE
8
BLACK
6
CONTINUOUS
10
89.0085
20
-109.593
11
89.4431
21
-109.812
0
LINE
8
BLACK
6
CONTINUOUS
10
89.4431
20
-109.812
11
89.8269
21
-110.112
0
LINE
8
BLACK
6
CONTINUOUS
10
89.8269
20
-110.112
11
90.145
21
-110.481
0
LINE
8
BLACK
6
CONTINUOUS
10
90.145
20
-110.481
11
90.3855
21
-110.904
0
LINE
8
BLACK
6
CONTINUOUS
10
90.3855
20
-110.904
11
90.5392
21
-111.366
0
LINE
8
BLACK
6
CONTINUOUS
10
90.5392
20
-111.366
11
90.6003
21
-111.849
0
LINE
8
BLACK
6
CONTINUOUS
10
90.6003
20
-111.849
11
90.6012
21
-111.919
0
LINE
8
BLACK
6
CONTINUOUS
10
90.6012
20
-111.919
11
90.5537
21
-112.403
0
LINE
8
BLACK
6
CONTINUOUS
10
90.5537
20
-112.403
11
90.413
21
-112.87
0
LINE
8
BLACK
6
CONTINUOUS
10
90.3483
20
-110.995
11
90.1261
21
-110.577
0
LINE
8
BLACK
6
CONTINUOUS
10
90.1261
20
-110.577
11
89.827
21
-110.21
0
LINE
8
BLACK
6
CONTINUOUS
10
89.827
20
-110.21
11
89.4623
21
-109.908
0
LINE
8
BLACK
6
CONTINUOUS
10
89.4623
20
-109.908
11
89.046
21
-109.683
0
LINE
8
BLACK
6
CONTINUOUS
10
89.046
20
-109.683
11
88.5939
21
-109.543
0
LINE
8
BLACK
6
CONTINUOUS
10
88.5939
20
-109.543
11
88.1232
21
-109.494
0
LINE
8
BLACK
6
CONTINUOUS
10
88.1232
20
-109.494
11
87.6518
21
-109.537
0
LINE
8
BLACK
6
CONTINUOUS
10
87.6518
20
-109.537
11
87.1978
21
-109.67
0
LINE
8
BLACK
6
CONTINUOUS
10
87.1978
20
-109.67
11
86.7784
21
-109.89
0
LINE
8
BLACK
6
CONTINUOUS
10
86.7784
20
-109.89
11
86.4096
21
-110.186
0
LINE
8
BLACK
6
CONTINUOUS
10
86.4096
20
-110.186
11
86.1054
21
-110.549
0
LINE
8
BLACK
6
CONTINUOUS
10
86.1054
20
-110.549
11
85.8773
21
-110.963
0
LINE
8
BLACK
6
CONTINUOUS
10
85.8773
20
-110.963
11
85.7342
21
-111.415
0
LINE
8
BLACK
6
CONTINUOUS
10
85.7342
20
-111.415
11
85.6815
21
-111.885
0
LINE
8
BLACK
6
CONTINUOUS
10
85.6815
20
-111.885
11
85.7211
21
-112.357
0
LINE
8
BLACK
6
CONTINUOUS
10
85.7211
20
-112.357
11
85.8515
21
-112.811
0
LINE
8
BLACK
6
CONTINUOUS
10
85.8515
20
-112.811
11
86.0679
21
-113.232
0
LINE
8
BLACK
6
CONTINUOUS
10
86.0679
20
-113.232
11
86.3619
21
-113.603
0
LINE
8
BLACK
6
CONTINUOUS
10
86.3619
20
-113.603
11
86.7223
21
-113.91
0
LINE
8
BLACK
6
CONTINUOUS
10
86.7223
20
-113.91
11
87.1354
21
-114.141
0
LINE
8
BLACK
6
CONTINUOUS
10
87.1354
20
-114.141
11
87.5855
21
-114.287
0
LINE
8
BLACK
6
CONTINUOUS
10
87.5855
20
-114.287
11
88.0555
21
-114.343
0
LINE
8
BLACK
6
CONTINUOUS
10
88.0555
20
-114.343
11
88.5273
21
-114.307
0
LINE
8
BLACK
6
CONTINUOUS
10
88.5273
20
-114.307
11
88.9832
21
-114.18
0
LINE
8
BLACK
6
CONTINUOUS
10
88.9832
20
-114.18
11
89.4056
21
-113.966
0
LINE
8
BLACK
6
CONTINUOUS
10
89.4056
20
-113.966
11
89.7786
21
-113.675
0
LINE
8
BLACK
6
CONTINUOUS
10
89.7786
20
-113.675
11
90.0878
21
-113.317
0
LINE
8
BLACK
6
CONTINUOUS
10
90.0878
20
-113.317
11
90.3216
21
-112.905
0
LINE
8
BLACK
6
CONTINUOUS
10
90.3216
20
-112.905
11
90.471
21
-112.456
0
LINE
8
BLACK
6
CONTINUOUS
10
90.471
20
-112.456
11
90.5303
21
-111.986
0
LINE
8
BLACK
6
CONTINUOUS
10
90.5303
20
-111.986
11
90.5312
21
-111.919
0
LINE
8
BLACK
6
CONTINUOUS
10
90.5312
20
-111.919
11
90.4851
21
-111.448
0
LINE
8
BLACK
6
CONTINUOUS
10
90.4851
20
-111.448
11
90.3483
21
-110.995
0
LINE
8
BLACK
6
CONTINUOUS
10
333.3
20
-112.87
11
333.072
21
-113.299
0
LINE
8
BLACK
6
CONTINUOUS
10
333.072
20
-113.299
11
332.764
21
-113.677
0
LINE
8
BLACK
6
CONTINUOUS
10
332.764
20
-113.677
11
332.389
21
-113.987
0
LINE
8
BLACK
6
CONTINUOUS
10
332.389
20
-113.987
11
331.961
21
-114.219
0
LINE
8
BLACK
6
CONTINUOUS
10
331.961
20
-114.219
11
331.495
21
-114.363
0
LINE
8
BLACK
6
CONTINUOUS
10
331.495
20
-114.363
11
331.011
21
-114.414
0
LINE
8
BLACK
6
CONTINUOUS
10
331.011
20
-114.414
11
330.526
21
-114.37
0
LINE
8
BLACK
6
CONTINUOUS
10
330.526
20
-114.37
11
330.059
21
-114.232
0
LINE
8
BLACK
6
CONTINUOUS
10
330.059
20
-114.232
11
329.628
21
-114.006
0
LINE
8
BLACK
6
CONTINUOUS
10
329.628
20
-114.006
11
329.248
21
-113.701
0
LINE
8
BLACK
6
CONTINUOUS
10
329.248
20
-113.701
11
328.935
21
-113.328
0
LINE
8
BLACK
6
CONTINUOUS
10
328.935
20
-113.328
11
328.701
21
-112.902
0
LINE
8
BLACK
6
CONTINUOUS
10
328.701
20
-112.902
11
328.553
21
-112.437
0
LINE
8
BLACK
6
CONTINUOUS
10
328.553
20
-112.437
11
328.499
21
-111.954
0
LINE
8
BLACK
6
CONTINUOUS
10
328.499
20
-111.954
11
328.54
21
-111.468
0
LINE
8
BLACK
6
CONTINUOUS
10
328.54
20
-111.468
11
328.674
21
-111
0
LINE
8
BLACK
6
CONTINUOUS
10
328.674
20
-111
11
328.897
21
-110.567
0
LINE
8
BLACK
6
CONTINUOUS
10
328.897
20
-110.567
11
329.199
21
-110.186
0
LINE
8
BLACK
6
CONTINUOUS
10
329.199
20
-110.186
11
329.57
21
-109.87
0
LINE
8
BLACK
6
CONTINUOUS
10
329.57
20
-109.87
11
329.995
21
-109.632
0
LINE
8
BLACK
6
CONTINUOUS
10
329.995
20
-109.632
11
330.458
21
-109.482
0
LINE
8
BLACK
6
CONTINUOUS
10
330.458
20
-109.482
11
330.941
21
-109.424
0
LINE
8
BLACK
6
CONTINUOUS
10
330.941
20
-109.424
11
331.427
21
-109.462
0
LINE
8
BLACK
6
CONTINUOUS
10
331.427
20
-109.462
11
331.896
21
-109.593
0
LINE
8
BLACK
6
CONTINUOUS
10
331.896
20
-109.593
11
332.331
21
-109.812
0
LINE
8
BLACK
6
CONTINUOUS
10
332.331
20
-109.812
11
332.714
21
-110.112
0
LINE
8
BLACK
6
CONTINUOUS
10
332.714
20
-110.112
11
333.033
21
-110.481
0
LINE
8
BLACK
6
CONTINUOUS
10
333.033
20
-110.481
11
333.273
21
-110.904
0
LINE
8
BLACK
6
CONTINUOUS
10
333.273
20
-110.904
11
333.427
21
-111.366
0
LINE
8
BLACK
6
CONTINUOUS
10
333.427
20
-111.366
11
333.488
21
-111.849
0
LINE
8
BLACK
6
CONTINUOUS
10
333.488
20
-111.849
11
333.489
21
-111.919
0
LINE
8
BLACK
6
CONTINUOUS
10
333.489
20
-111.919
11
333.441
21
-112.403
0
LINE
8
BLACK
6
CONTINUOUS
10
333.441
20
-112.403
11
333.3
21
-112.87
0
LINE
8
BLACK
6
CONTINUOUS
10
333.236
20
-110.995
11
333.014
21
-110.577
0
LINE
8
BLACK
6
CONTINUOUS
10
333.014
20
-110.577
11
332.714
21
-110.21
0
LINE
8
BLACK
6
CONTINUOUS
10
332.714
20
-110.21
11
332.35
21
-109.908
0
LINE
8
BLACK
6
CONTINUOUS
10
332.35
20
-109.908
11
331.933
21
-109.683
0
LINE
8
BLACK
6
CONTINUOUS
10
331.933
20
-109.683
11
331.481
21
-109.543
0
LINE
8
BLACK
6
CONTINUOUS
10
331.481
20
-109.543
11
331.011
21
-109.494
0
LINE
8
BLACK
6
CONTINUOUS
10
331.011
20
-109.494
11
330.539
21
-109.537
0
LINE
8
BLACK
6
CONTINUOUS
10
330.539
20
-109.537
11
330.085
21
-109.67
0
LINE
8
BLACK
6
CONTINUOUS
10
330.085
20
-109.67
11
329.666
21
-109.89
0
LINE
8
BLACK
6
CONTINUOUS
10
329.666
20
-109.89
11
329.297
21
-110.186
0
LINE
8
BLACK
6
CONTINUOUS
10
329.297
20
-110.186
11
328.993
21
-110.549
0
LINE
8
BLACK
6
CONTINUOUS
10
328.993
20
-110.549
11
328.765
21
-110.963
0
LINE
8
BLACK
6
CONTINUOUS
10
328.765
20
-110.963
11
328.622
21
-111.415
0
LINE
8
BLACK
6
CONTINUOUS
10
328.622
20
-111.415
11
328.569
21
-111.885
0
LINE
8
BLACK
6
CONTINUOUS
10
328.569
20
-111.885
11
328.609
21
-112.357
0
LINE
8
BLACK
6
CONTINUOUS
10
328.609
20
-112.357
11
328.739
21
-112.811
0
LINE
8
BLACK
6
CONTINUOUS
10
328.739
20
-112.811
11
328.955
21
-113.232
0
LINE
8
BLACK
6
CONTINUOUS
10
328.955
20
-113.232
11
329.249
21
-113.603
0
LINE
8
BLACK
6
CONTINUOUS
10
329.249
20
-113.603
11
329.61
21
-113.91
0
LINE
8
BLACK
6
CONTINUOUS
10
329.61
20
-113.91
11
330.023
21
-114.141
0
LINE
8
BLACK
6
CONTINUOUS
10
330.023
20
-114.141
11
330.473
21
-114.287
0
LINE
8
BLACK
6
CONTINUOUS
10
330.473
20
-114.287
11
330.943
21
-114.343
0
LINE
8
BLACK
6
CONTINUOUS
10
330.943
20
-114.343
11
331.415
21
-114.307
0
LINE
8
BLACK
6
CONTINUOUS
10
331.415
20
-114.307
11
331.871
21
-114.18
0
LINE
8
BLACK
6
CONTINUOUS
10
331.871
20
-114.18
11
332.293
21
-113.966
0
LINE
8
BLACK
6
CONTINUOUS
10
332.293
20
-113.966
11
332.666
21
-113.675
0
LINE
8
BLACK
6
CONTINUOUS
10
332.666
20
-113.675
11
332.975
21
-113.317
0
LINE
8
BLACK
6
CONTINUOUS
10
332.975
20
-113.317
11
333.209
21
-112.905
0
LINE
8
BLACK
6
CONTINUOUS
10
333.209
20
-112.905
11
333.358
21
-112.456
0
LINE
8
BLACK
6
CONTINUOUS
10
333.358
20
-112.456
11
333.418
21
-111.986
0
LINE
8
BLACK
6
CONTINUOUS
10
333.418
20
-111.986
11
333.419
21
-111.919
0
LINE
8
BLACK
6
CONTINUOUS
10
333.419
20
-111.919
11
333.373
21
-111.448
0
LINE
8
BLACK
6
CONTINUOUS
10
333.373
20
-111.448
11
333.236
21
-110.995
0
LINE
8
BLACK
6
CONTINUOUS
10
168.994
20
-53.3383
11
168.766
21
-53.7682
0
LINE
8
BLACK
6
CONTINUOUS
10
168.766
20
-53.7682
11
168.458
21
-54.1456
0
LINE
8
BLACK
6
CONTINUOUS
10
168.458
20
-54.1456
11
168.083
21
-54.4559
0
LINE
8
BLACK
6
CONTINUOUS
10
168.083
20
-54.4559
11
167.654
21
-54.6875
0
LINE
8
BLACK
6
CONTINUOUS
10
167.654
20
-54.6875
11
167.189
21
-54.8315
0
LINE
8
BLACK
6
CONTINUOUS
10
167.189
20
-54.8315
11
166.705
21
-54.8824
0
LINE
8
BLACK
6
CONTINUOUS
10
166.705
20
-54.8824
11
166.22
21
-54.8383
0
LINE
8
BLACK
6
CONTINUOUS
10
166.22
20
-54.8383
11
165.753
21
-54.7008
0
LINE
8
BLACK
6
CONTINUOUS
10
165.753
20
-54.7008
11
165.321
21
-54.4752
0
LINE
8
BLACK
6
CONTINUOUS
10
165.321
20
-54.4752
11
164.942
21
-54.1701
0
LINE
8
BLACK
6
CONTINUOUS
10
164.942
20
-54.1701
11
164.629
21
-53.7971
0
LINE
8
BLACK
6
CONTINUOUS
10
164.629
20
-53.7971
11
164.394
21
-53.3704
0
LINE
8
BLACK
6
CONTINUOUS
10
164.394
20
-53.3704
11
164.247
21
-52.9062
0
LINE
8
BLACK
6
CONTINUOUS
10
164.247
20
-52.9062
11
164.193
21
-52.4223
0
LINE
8
BLACK
6
CONTINUOUS
10
164.193
20
-52.4223
11
164.233
21
-51.9371
0
LINE
8
BLACK
6
CONTINUOUS
10
164.233
20
-51.9371
11
164.368
21
-51.469
0
LINE
8
BLACK
6
CONTINUOUS
10
164.368
20
-51.469
11
164.59
21
-51.0359
0
LINE
8
BLACK
6
CONTINUOUS
10
164.59
20
-51.0359
11
164.893
21
-50.6543
0
LINE
8
BLACK
6
CONTINUOUS
10
164.893
20
-50.6543
11
165.264
21
-50.3387
0
LINE
8
BLACK
6
CONTINUOUS
10
165.264
20
-50.3387
11
165.689
21
-50.1012
0
LINE
8
BLACK
6
CONTINUOUS
10
165.689
20
-50.1012
11
166.152
21
-49.9507
0
LINE
8
BLACK
6
CONTINUOUS
10
166.152
20
-49.9507
11
166.635
21
-49.893
0
LINE
8
BLACK
6
CONTINUOUS
10
166.635
20
-49.893
11
167.121
21
-49.9304
0
LINE
8
BLACK
6
CONTINUOUS
10
167.121
20
-49.9304
11
167.59
21
-50.0614
0
LINE
8
BLACK
6
CONTINUOUS
10
167.59
20
-50.0614
11
168.024
21
-50.2809
0
LINE
8
BLACK
6
CONTINUOUS
10
168.024
20
-50.2809
11
168.408
21
-50.5807
0
LINE
8
BLACK
6
CONTINUOUS
10
168.408
20
-50.5807
11
168.726
21
-50.9493
0
LINE
8
BLACK
6
CONTINUOUS
10
168.726
20
-50.9493
11
168.967
21
-51.3727
0
LINE
8
BLACK
6
CONTINUOUS
10
168.967
20
-51.3727
11
169.12
21
-51.8347
0
LINE
8
BLACK
6
CONTINUOUS
10
169.12
20
-51.8347
11
169.182
21
-52.3178
0
LINE
8
BLACK
6
CONTINUOUS
10
169.182
20
-52.3178
11
169.183
21
-52.3875
0
LINE
8
BLACK
6
CONTINUOUS
10
169.183
20
-52.3875
11
169.135
21
-52.8721
0
LINE
8
BLACK
6
CONTINUOUS
10
169.135
20
-52.8721
11
168.994
21
-53.3383
0
LINE
8
BLACK
6
CONTINUOUS
10
168.93
20
-51.4634
11
168.707
21
-51.0455
0
LINE
8
BLACK
6
CONTINUOUS
10
168.707
20
-51.0455
11
168.408
21
-50.6788
0
LINE
8
BLACK
6
CONTINUOUS
10
168.408
20
-50.6788
11
168.044
21
-50.3771
0
LINE
8
BLACK
6
CONTINUOUS
10
168.044
20
-50.3771
11
167.627
21
-50.152
0
LINE
8
BLACK
6
CONTINUOUS
10
167.627
20
-50.152
11
167.175
21
-50.012
0
LINE
8
BLACK
6
CONTINUOUS
10
167.175
20
-50.012
11
166.704
21
-49.9626
0
LINE
8
BLACK
6
CONTINUOUS
10
166.704
20
-49.9626
11
166.233
21
-50.0055
0
LINE
8
BLACK
6
CONTINUOUS
10
166.233
20
-50.0055
11
165.779
21
-50.1391
0
LINE
8
BLACK
6
CONTINUOUS
10
165.779
20
-50.1391
11
165.36
21
-50.3583
0
LINE
8
BLACK
6
CONTINUOUS
10
165.36
20
-50.3583
11
164.991
21
-50.6549
0
LINE
8
BLACK
6
CONTINUOUS
10
164.991
20
-50.6549
11
164.687
21
-51.0175
0
LINE
8
BLACK
6
CONTINUOUS
10
164.687
20
-51.0175
11
164.459
21
-51.4322
0
LINE
8
BLACK
6
CONTINUOUS
10
164.459
20
-51.4322
11
164.315
21
-51.8833
0
LINE
8
BLACK
6
CONTINUOUS
10
164.315
20
-51.8833
11
164.263
21
-52.3536
0
LINE
8
BLACK
6
CONTINUOUS
10
164.263
20
-52.3536
11
164.302
21
-52.8253
0
LINE
8
BLACK
6
CONTINUOUS
10
164.302
20
-52.8253
11
164.433
21
-53.2802
0
LINE
8
BLACK
6
CONTINUOUS
10
164.433
20
-53.2802
11
164.649
21
-53.7011
0
LINE
8
BLACK
6
CONTINUOUS
10
164.649
20
-53.7011
11
164.943
21
-54.072
0
LINE
8
BLACK
6
CONTINUOUS
10
164.943
20
-54.072
11
165.304
21
-54.3788
0
LINE
8
BLACK
6
CONTINUOUS
10
165.304
20
-54.3788
11
165.717
21
-54.6097
0
LINE
8
BLACK
6
CONTINUOUS
10
165.717
20
-54.6097
11
166.167
21
-54.7559
0
LINE
8
BLACK
6
CONTINUOUS
10
166.167
20
-54.7559
11
166.637
21
-54.812
0
LINE
8
BLACK
6
CONTINUOUS
10
166.637
20
-54.812
11
167.109
21
-54.7757
0
LINE
8
BLACK
6
CONTINUOUS
10
167.109
20
-54.7757
11
167.564
21
-54.6484
0
LINE
8
BLACK
6
CONTINUOUS
10
167.564
20
-54.6484
11
167.987
21
-54.435
0
LINE
8
BLACK
6
CONTINUOUS
10
167.987
20
-54.435
11
168.36
21
-54.1436
0
LINE
8
BLACK
6
CONTINUOUS
10
168.36
20
-54.1436
11
168.669
21
-53.7853
0
LINE
8
BLACK
6
CONTINUOUS
10
168.669
20
-53.7853
11
168.903
21
-53.3738
0
LINE
8
BLACK
6
CONTINUOUS
10
168.903
20
-53.3738
11
169.052
21
-52.9248
0
LINE
8
BLACK
6
CONTINUOUS
10
169.052
20
-52.9248
11
169.112
21
-52.4552
0
LINE
8
BLACK
6
CONTINUOUS
10
169.112
20
-52.4552
11
169.112
21
-52.3875
0
LINE
8
BLACK
6
CONTINUOUS
10
169.112
20
-52.3875
11
169.066
21
-51.9165
0
LINE
8
BLACK
6
CONTINUOUS
10
169.066
20
-51.9165
11
168.93
21
-51.4634
0
LINE
8
BLACK
6
CONTINUOUS
10
254.719
20
-53.3383
11
254.491
21
-53.7682
0
LINE
8
BLACK
6
CONTINUOUS
10
254.491
20
-53.7682
11
254.183
21
-54.1456
0
LINE
8
BLACK
6
CONTINUOUS
10
254.183
20
-54.1456
11
253.808
21
-54.4559
0
LINE
8
BLACK
6
CONTINUOUS
10
253.808
20
-54.4559
11
253.379
21
-54.6875
0
LINE
8
BLACK
6
CONTINUOUS
10
253.379
20
-54.6875
11
252.914
21
-54.8315
0
LINE
8
BLACK
6
CONTINUOUS
10
252.914
20
-54.8315
11
252.43
21
-54.8824
0
LINE
8
BLACK
6
CONTINUOUS
10
252.43
20
-54.8824
11
251.945
21
-54.8383
0
LINE
8
BLACK
6
CONTINUOUS
10
251.945
20
-54.8383
11
251.478
21
-54.7008
0
LINE
8
BLACK
6
CONTINUOUS
10
251.478
20
-54.7008
11
251.046
21
-54.4752
0
LINE
8
BLACK
6
CONTINUOUS
10
251.046
20
-54.4752
11
250.667
21
-54.1701
0
LINE
8
BLACK
6
CONTINUOUS
10
250.667
20
-54.1701
11
250.354
21
-53.7971
0
LINE
8
BLACK
6
CONTINUOUS
10
250.354
20
-53.7971
11
250.119
21
-53.3704
0
LINE
8
BLACK
6
CONTINUOUS
10
250.119
20
-53.3704
11
249.972
21
-52.9062
0
LINE
8
BLACK
6
CONTINUOUS
10
249.972
20
-52.9062
11
249.918
21
-52.4223
0
LINE
8
BLACK
6
CONTINUOUS
10
249.918
20
-52.4223
11
249.958
21
-51.9371
0
LINE
8
BLACK
6
CONTINUOUS
10
249.958
20
-51.9371
11
250.093
21
-51.469
0
LINE
8
BLACK
6
CONTINUOUS
10
250.093
20
-51.469
11
250.315
21
-51.0359
0
LINE
8
BLACK
6
CONTINUOUS
10
250.315
20
-51.0359
11
250.618
21
-50.6543
0
LINE
8
BLACK
6
CONTINUOUS
10
250.618
20
-50.6543
11
250.989
21
-50.3387
0
LINE
8
BLACK
6
CONTINUOUS
10
250.989
20
-50.3387
11
251.414
21
-50.1012
0
LINE
8
BLACK
6
CONTINUOUS
10
251.414
20
-50.1012
11
251.877
21
-49.9507
0
LINE
8
BLACK
6
CONTINUOUS
10
251.877
20
-49.9507
11
252.36
21
-49.893
0
LINE
8
BLACK
6
CONTINUOUS
10
252.36
20
-49.893
11
252.846
21
-49.9304
0
LINE
8
BLACK
6
CONTINUOUS
10
252.846
20
-49.9304
11
253.315
21
-50.0614
0
LINE
8
BLACK
6
CONTINUOUS
10
253.315
20
-50.0614
11
253.749
21
-50.2809
0
LINE
8
BLACK
6
CONTINUOUS
10
253.749
20
-50.2809
11
254.133
21
-50.5807
0
LINE
8
BLACK
6
CONTINUOUS
10
254.133
20
-50.5807
11
254.451
21
-50.9493
0
LINE
8
BLACK
6
CONTINUOUS
10
254.451
20
-50.9493
11
254.692
21
-51.3727
0
LINE
8
BLACK
6
CONTINUOUS
10
254.692
20
-51.3727
11
254.845
21
-51.8347
0
LINE
8
BLACK
6
CONTINUOUS
10
254.845
20
-51.8347
11
254.907
21
-52.3178
0
LINE
8
BLACK
6
CONTINUOUS
10
254.907
20
-52.3178
11
254.907
21
-52.3875
0
LINE
8
BLACK
6
CONTINUOUS
10
254.907
20
-52.3875
11
254.86
21
-52.8721
0
LINE
8
BLACK
6
CONTINUOUS
10
254.86
20
-52.8721
11
254.719
21
-53.3383
0
LINE
8
BLACK
6
CONTINUOUS
10
254.655
20
-51.4634
11
254.432
21
-51.0455
0
LINE
8
BLACK
6
CONTINUOUS
10
254.432
20
-51.0455
11
254.133
21
-50.6788
0
LINE
8
BLACK
6
CONTINUOUS
10
254.133
20
-50.6788
11
253.769
21
-50.3771
0
LINE
8
BLACK
6
CONTINUOUS
10
253.769
20
-50.3771
11
253.352
21
-50.152
0
LINE
8
BLACK
6
CONTINUOUS
10
253.352
20
-50.152
11
252.9
21
-50.012
0
LINE
8
BLACK
6
CONTINUOUS
10
252.9
20
-50.012
11
252.429
21
-49.9626
0
LINE
8
BLACK
6
CONTINUOUS
10
252.429
20
-49.9626
11
251.958
21
-50.0055
0
LINE
8
BLACK
6
CONTINUOUS
10
251.958
20
-50.0055
11
251.504
21
-50.1391
0
LINE
8
BLACK
6
CONTINUOUS
10
251.504
20
-50.1391
11
251.085
21
-50.3583
0
LINE
8
BLACK
6
CONTINUOUS
10
251.085
20
-50.3583
11
250.716
21
-50.6549
0
LINE
8
BLACK
6
CONTINUOUS
10
250.716
20
-50.6549
11
250.412
21
-51.0175
0
LINE
8
BLACK
6
CONTINUOUS
10
250.412
20
-51.0175
11
250.184
21
-51.4322
0
LINE
8
BLACK
6
CONTINUOUS
10
250.184
20
-51.4322
11
250.04
21
-51.8833
0
LINE
8
BLACK
6
CONTINUOUS
10
250.04
20
-51.8833
11
249.988
21
-52.3536
0
LINE
8
BLACK
6
CONTINUOUS
10
249.988
20
-52.3536
11
250.027
21
-52.8253
0
LINE
8
BLACK
6
CONTINUOUS
10
250.027
20
-52.8253
11
250.158
21
-53.2802
0
LINE
8
BLACK
6
CONTINUOUS
10
250.158
20
-53.2802
11
250.374
21
-53.7011
0
LINE
8
BLACK
6
CONTINUOUS
10
250.374
20
-53.7011
11
250.668
21
-54.072
0
LINE
8
BLACK
6
CONTINUOUS
10
250.668
20
-54.072
11
251.029
21
-54.3788
0
LINE
8
BLACK
6
CONTINUOUS
10
251.029
20
-54.3788
11
251.442
21
-54.6097
0
LINE
8
BLACK
6
CONTINUOUS
10
251.442
20
-54.6097
11
251.892
21
-54.7559
0
LINE
8
BLACK
6
CONTINUOUS
10
251.892
20
-54.7559
11
252.362
21
-54.812
0
LINE
8
BLACK
6
CONTINUOUS
10
252.362
20
-54.812
11
252.834
21
-54.7757
0
LINE
8
BLACK
6
CONTINUOUS
10
252.834
20
-54.7757
11
253.289
21
-54.6484
0
LINE
8
BLACK
6
CONTINUOUS
10
253.289
20
-54.6484
11
253.712
21
-54.435
0
LINE
8
BLACK
6
CONTINUOUS
10
253.712
20
-54.435
11
254.085
21
-54.1436
0
LINE
8
BLACK
6
CONTINUOUS
10
254.085
20
-54.1436
11
254.394
21
-53.7853
0
LINE
8
BLACK
6
CONTINUOUS
10
254.394
20
-53.7853
11
254.628
21
-53.3738
0
LINE
8
BLACK
6
CONTINUOUS
10
254.628
20
-53.3738
11
254.777
21
-52.9248
0
LINE
8
BLACK
6
CONTINUOUS
10
254.777
20
-52.9248
11
254.837
21
-52.4552
0
LINE
8
BLACK
6
CONTINUOUS
10
254.837
20
-52.4552
11
254.837
21
-52.3875
0
LINE
8
BLACK
6
CONTINUOUS
10
254.837
20
-52.3875
11
254.791
21
-51.9165
0
LINE
8
BLACK
6
CONTINUOUS
10
254.791
20
-51.9165
11
254.655
21
-51.4634
0
LINE
8
BLACK
6
CONTINUOUS
10
333.3
20
-46.1945
11
333.072
21
-46.6245
0
LINE
8
BLACK
6
CONTINUOUS
10
333.072
20
-46.6245
11
332.764
21
-47.0018
0
LINE
8
BLACK
6
CONTINUOUS
10
332.764
20
-47.0018
11
332.389
21
-47.3122
0
LINE
8
BLACK
6
CONTINUOUS
10
332.389
20
-47.3122
11
331.961
21
-47.5438
0
LINE
8
BLACK
6
CONTINUOUS
10
331.961
20
-47.5438
11
331.495
21
-47.6878
0
LINE
8
BLACK
6
CONTINUOUS
10
331.495
20
-47.6878
11
331.011
21
-47.7387
0
LINE
8
BLACK
6
CONTINUOUS
10
331.011
20
-47.7387
11
330.526
21
-47.6946
0
LINE
8
BLACK
6
CONTINUOUS
10
330.526
20
-47.6946
11
330.059
21
-47.5571
0
LINE
8
BLACK
6
CONTINUOUS
10
330.059
20
-47.5571
11
329.628
21
-47.3315
0
LINE
8
BLACK
6
CONTINUOUS
10
329.628
20
-47.3315
11
329.248
21
-47.0264
0
LINE
8
BLACK
6
CONTINUOUS
10
329.248
20
-47.0264
11
328.935
21
-46.6533
0
LINE
8
BLACK
6
CONTINUOUS
10
328.935
20
-46.6533
11
328.701
21
-46.2266
0
LINE
8
BLACK
6
CONTINUOUS
10
328.701
20
-46.2266
11
328.553
21
-45.7625
0
LINE
8
BLACK
6
CONTINUOUS
10
328.553
20
-45.7625
11
328.499
21
-45.2786
0
LINE
8
BLACK
6
CONTINUOUS
10
328.499
20
-45.2786
11
328.54
21
-44.7934
0
LINE
8
BLACK
6
CONTINUOUS
10
328.54
20
-44.7934
11
328.674
21
-44.3253
0
LINE
8
BLACK
6
CONTINUOUS
10
328.674
20
-44.3253
11
328.897
21
-43.8922
0
LINE
8
BLACK
6
CONTINUOUS
10
328.897
20
-43.8922
11
329.199
21
-43.5106
0
LINE
8
BLACK
6
CONTINUOUS
10
329.199
20
-43.5106
11
329.57
21
-43.195
0
LINE
8
BLACK
6
CONTINUOUS
10
329.57
20
-43.195
11
329.995
21
-42.9574
0
LINE
8
BLACK
6
CONTINUOUS
10
329.995
20
-42.9574
11
330.458
21
-42.807
0
LINE
8
BLACK
6
CONTINUOUS
10
330.458
20
-42.807
11
330.941
21
-42.7493
0
LINE
8
BLACK
6
CONTINUOUS
10
330.941
20
-42.7493
11
331.427
21
-42.7867
0
LINE
8
BLACK
6
CONTINUOUS
10
331.427
20
-42.7867
11
331.896
21
-42.9176
0
LINE
8
BLACK
6
CONTINUOUS
10
331.896
20
-42.9176
11
332.331
21
-43.1372
0
LINE
8
BLACK
6
CONTINUOUS
10
332.331
20
-43.1372
11
332.714
21
-43.4369
0
LINE
8
BLACK
6
CONTINUOUS
10
332.714
20
-43.4369
11
333.033
21
-43.8056
0
LINE
8
BLACK
6
CONTINUOUS
10
333.033
20
-43.8056
11
333.273
21
-44.2289
0
LINE
8
BLACK
6
CONTINUOUS
10
333.273
20
-44.2289
11
333.427
21
-44.691
0
LINE
8
BLACK
6
CONTINUOUS
10
333.427
20
-44.691
11
333.488
21
-45.1741
0
LINE
8
BLACK
6
CONTINUOUS
10
333.488
20
-45.1741
11
333.489
21
-45.2437
0
LINE
8
BLACK
6
CONTINUOUS
10
333.489
20
-45.2437
11
333.441
21
-45.7284
0
LINE
8
BLACK
6
CONTINUOUS
10
333.441
20
-45.7284
11
333.3
21
-46.1945
0
LINE
8
BLACK
6
CONTINUOUS
10
333.236
20
-44.3197
11
333.014
21
-43.9018
0
LINE
8
BLACK
6
CONTINUOUS
10
333.014
20
-43.9018
11
332.714
21
-43.535
0
LINE
8
BLACK
6
CONTINUOUS
10
332.714
20
-43.535
11
332.35
21
-43.2333
0
LINE
8
BLACK
6
CONTINUOUS
10
332.35
20
-43.2333
11
331.933
21
-43.0082
0
LINE
8
BLACK
6
CONTINUOUS
10
331.933
20
-43.0082
11
331.481
21
-42.8683
0
LINE
8
BLACK
6
CONTINUOUS
10
331.481
20
-42.8683
11
331.011
21
-42.8188
0
LINE
8
BLACK
6
CONTINUOUS
10
331.011
20
-42.8188
11
330.539
21
-42.8617
0
LINE
8
BLACK
6
CONTINUOUS
10
330.539
20
-42.8617
11
330.085
21
-42.9953
0
LINE
8
BLACK
6
CONTINUOUS
10
330.085
20
-42.9953
11
329.666
21
-43.2146
0
LINE
8
BLACK
6
CONTINUOUS
10
329.666
20
-43.2146
11
329.297
21
-43.5112
0
LINE
8
BLACK
6
CONTINUOUS
10
329.297
20
-43.5112
11
328.993
21
-43.8737
0
LINE
8
BLACK
6
CONTINUOUS
10
328.993
20
-43.8737
11
328.765
21
-44.2884
0
LINE
8
BLACK
6
CONTINUOUS
10
328.765
20
-44.2884
11
328.622
21
-44.7396
0
LINE
8
BLACK
6
CONTINUOUS
10
328.622
20
-44.7396
11
328.569
21
-45.2099
0
LINE
8
BLACK
6
CONTINUOUS
10
328.569
20
-45.2099
11
328.609
21
-45.6815
0
LINE
8
BLACK
6
CONTINUOUS
10
328.609
20
-45.6815
11
328.739
21
-46.1365
0
LINE
8
BLACK
6
CONTINUOUS
10
328.739
20
-46.1365
11
328.955
21
-46.5574
0
LINE
8
BLACK
6
CONTINUOUS
10
328.955
20
-46.5574
11
329.249
21
-46.9283
0
LINE
8
BLACK
6
CONTINUOUS
10
329.249
20
-46.9283
11
329.61
21
-47.235
0
LINE
8
BLACK
6
CONTINUOUS
10
329.61
20
-47.235
11
330.023
21
-47.4659
0
LINE
8
BLACK
6
CONTINUOUS
10
330.023
20
-47.4659
11
330.473
21
-47.6122
0
LINE
8
BLACK
6
CONTINUOUS
10
330.473
20
-47.6122
11
330.943
21
-47.6682
0
LINE
8
BLACK
6
CONTINUOUS
10
330.943
20
-47.6682
11
331.415
21
-47.6319
0
LINE
8
BLACK
6
CONTINUOUS
10
331.415
20
-47.6319
11
331.871
21
-47.5046
0
LINE
8
BLACK
6
CONTINUOUS
10
331.871
20
-47.5046
11
332.293
21
-47.2912
0
LINE
8
BLACK
6
CONTINUOUS
10
332.293
20
-47.2912
11
332.666
21
-46.9999
0
LINE
8
BLACK
6
CONTINUOUS
10
332.666
20
-46.9999
11
332.975
21
-46.6416
0
LINE
8
BLACK
6
CONTINUOUS
10
332.975
20
-46.6416
11
333.209
21
-46.2301
0
LINE
8
BLACK
6
CONTINUOUS
10
333.209
20
-46.2301
11
333.358
21
-45.781
0
LINE
8
BLACK
6
CONTINUOUS
10
333.358
20
-45.781
11
333.418
21
-45.3115
0
LINE
8
BLACK
6
CONTINUOUS
10
333.418
20
-45.3115
11
333.419
21
-45.2437
0
LINE
8
BLACK
6
CONTINUOUS
10
333.419
20
-45.2437
11
333.373
21
-44.7727
0
LINE
8
BLACK
6
CONTINUOUS
10
333.373
20
-44.7727
11
333.236
21
-44.3197
0
LINE
8
BLACK
6
CONTINUOUS
10
90.413
20
-46.1945
11
90.1844
21
-46.6245
0
LINE
8
BLACK
6
CONTINUOUS
10
90.1844
20
-46.6245
11
89.8766
21
-47.0018
0
LINE
8
BLACK
6
CONTINUOUS
10
89.8766
20
-47.0018
11
89.5014
21
-47.3122
0
LINE
8
BLACK
6
CONTINUOUS
10
89.5014
20
-47.3122
11
89.0731
21
-47.5438
0
LINE
8
BLACK
6
CONTINUOUS
10
89.0731
20
-47.5438
11
88.6079
21
-47.6878
0
LINE
8
BLACK
6
CONTINUOUS
10
88.6079
20
-47.6878
11
88.1237
21
-47.7387
0
LINE
8
BLACK
6
CONTINUOUS
10
88.1237
20
-47.7387
11
87.6387
21
-47.6946
0
LINE
8
BLACK
6
CONTINUOUS
10
87.6387
20
-47.6946
11
87.1716
21
-47.5571
0
LINE
8
BLACK
6
CONTINUOUS
10
87.1716
20
-47.5571
11
86.7401
21
-47.3315
0
LINE
8
BLACK
6
CONTINUOUS
10
86.7401
20
-47.3315
11
86.3606
21
-47.0264
0
LINE
8
BLACK
6
CONTINUOUS
10
86.3606
20
-47.0264
11
86.0476
21
-46.6533
0
LINE
8
BLACK
6
CONTINUOUS
10
86.0476
20
-46.6533
11
85.813
21
-46.2266
0
LINE
8
BLACK
6
CONTINUOUS
10
85.813
20
-46.2266
11
85.6658
21
-45.7625
0
LINE
8
BLACK
6
CONTINUOUS
10
85.6658
20
-45.7625
11
85.6115
21
-45.2786
0
LINE
8
BLACK
6
CONTINUOUS
10
85.6115
20
-45.2786
11
85.6522
21
-44.7934
0
LINE
8
BLACK
6
CONTINUOUS
10
85.6522
20
-44.7934
11
85.7865
21
-44.3253
0
LINE
8
BLACK
6
CONTINUOUS
10
85.7865
20
-44.3253
11
86.009
21
-43.8922
0
LINE
8
BLACK
6
CONTINUOUS
10
86.009
20
-43.8922
11
86.3115
21
-43.5106
0
LINE
8
BLACK
6
CONTINUOUS
10
86.3115
20
-43.5106
11
86.6823
21
-43.195
0
LINE
8
BLACK
6
CONTINUOUS
10
86.6823
20
-43.195
11
87.1074
21
-42.9574
0
LINE
8
BLACK
6
CONTINUOUS
10
87.1074
20
-42.9574
11
87.5705
21
-42.807
0
LINE
8
BLACK
6
CONTINUOUS
10
87.5705
20
-42.807
11
88.054
21
-42.7493
0
LINE
8
BLACK
6
CONTINUOUS
10
88.054
20
-42.7493
11
88.5395
21
-42.7867
0
LINE
8
BLACK
6
CONTINUOUS
10
88.5395
20
-42.7867
11
89.0085
21
-42.9176
0
LINE
8
BLACK
6
CONTINUOUS
10
89.0085
20
-42.9176
11
89.4431
21
-43.1372
0
LINE
8
BLACK
6
CONTINUOUS
10
89.4431
20
-43.1372
11
89.8269
21
-43.4369
0
LINE
8
BLACK
6
CONTINUOUS
10
89.8269
20
-43.4369
11
90.145
21
-43.8056
0
LINE
8
BLACK
6
CONTINUOUS
10
90.145
20
-43.8056
11
90.3855
21
-44.2289
0
LINE
8
BLACK
6
CONTINUOUS
10
90.3855
20
-44.2289
11
90.5392
21
-44.691
0
LINE
8
BLACK
6
CONTINUOUS
10
90.5392
20
-44.691
11
90.6003
21
-45.1741
0
LINE
8
BLACK
6
CONTINUOUS
10
90.6003
20
-45.1741
11
90.6012
21
-45.2437
0
LINE
8
BLACK
6
CONTINUOUS
10
90.6012
20
-45.2437
11
90.5537
21
-45.7284
0
LINE
8
BLACK
6
CONTINUOUS
10
90.5537
20
-45.7284
11
90.413
21
-46.1945
0
LINE
8
BLACK
6
CONTINUOUS
10
90.3483
20
-44.3197
11
90.1261
21
-43.9018
0
LINE
8
BLACK
6
CONTINUOUS
10
90.1261
20
-43.9018
11
89.827
21
-43.535
0
LINE
8
BLACK
6
CONTINUOUS
10
89.827
20
-43.535
11
89.4623
21
-43.2333
0
LINE
8
BLACK
6
CONTINUOUS
10
89.4623
20
-43.2333
11
89.046
21
-43.0082
0
LINE
8
BLACK
6
CONTINUOUS
10
89.046
20
-43.0082
11
88.5939
21
-42.8683
0
LINE
8
BLACK
6
CONTINUOUS
10
88.5939
20
-42.8683
11
88.1232
21
-42.8188
0
LINE
8
BLACK
6
CONTINUOUS
10
88.1232
20
-42.8188
11
87.6518
21
-42.8617
0
LINE
8
BLACK
6
CONTINUOUS
10
87.6518
20
-42.8617
11
87.1978
21
-42.9953
0
LINE
8
BLACK
6
CONTINUOUS
10
87.1978
20
-42.9953
11
86.7784
21
-43.2146
0
LINE
8
BLACK
6
CONTINUOUS
10
86.7784
20
-43.2146
11
86.4096
21
-43.5112
0
LINE
8
BLACK
6
CONTINUOUS
10
86.4096
20
-43.5112
11
86.1054
21
-43.8737
0
LINE
8
BLACK
6
CONTINUOUS
10
86.1054
20
-43.8737
11
85.8773
21
-44.2884
0
LINE
8
BLACK
6
CONTINUOUS
10
85.8773
20
-44.2884
11
85.7342
21
-44.7396
0
LINE
8
BLACK
6
CONTINUOUS
10
85.7342
20
-44.7396
11
85.6815
21
-45.2099
0
LINE
8
BLACK
6
CONTINUOUS
10
85.6815
20
-45.2099
11
85.7211
21
-45.6815
0
LINE
8
BLACK
6
CONTINUOUS
10
85.7211
20
-45.6815
11
85.8515
21
-46.1365
0
LINE
8
BLACK
6
CONTINUOUS
10
85.8515
20
-46.1365
11
86.0679
21
-46.5574
0
LINE
8
BLACK
6
CONTINUOUS
10
86.0679
20
-46.5574
11
86.3619
21
-46.9283
0
LINE
8
BLACK
6
CONTINUOUS
10
86.3619
20
-46.9283
11
86.7223
21
-47.235
0
LINE
8
BLACK
6
CONTINUOUS
10
86.7223
20
-47.235
11
87.1354
21
-47.4659
0
LINE
8
BLACK
6
CONTINUOUS
10
87.1354
20
-47.4659
11
87.5855
21
-47.6122
0
LINE
8
BLACK
6
CONTINUOUS
10
87.5855
20
-47.6122
11
88.0555
21
-47.6682
0
LINE
8
BLACK
6
CONTINUOUS
10
88.0555
20
-47.6682
11
88.5273
21
-47.6319
0
LINE
8
BLACK
6
CONTINUOUS
10
88.5273
20
-47.6319
11
88.9832
21
-47.5046
0
LINE
8
BLACK
6
CONTINUOUS
10
88.9832
20
-47.5046
11
89.4056
21
-47.2912
0
LINE
8
BLACK
6
CONTINUOUS
10
89.4056
20
-47.2912
11
89.7786
21
-46.9999
0
LINE
8
BLACK
6
CONTINUOUS
10
89.7786
20
-46.9999
11
90.0878
21
-46.6416
0
LINE
8
BLACK
6
CONTINUOUS
10
90.0878
20
-46.6416
11
90.3216
21
-46.2301
0
LINE
8
BLACK
6
CONTINUOUS
10
90.3216
20
-46.2301
11
90.471
21
-45.781
0
LINE
8
BLACK
6
CONTINUOUS
10
90.471
20
-45.781
11
90.5303
21
-45.3115
0
LINE
8
BLACK
6
CONTINUOUS
10
90.5303
20
-45.3115
11
90.5312
21
-45.2437
0
LINE
8
BLACK
6
CONTINUOUS
10
90.5312
20
-45.2437
11
90.4851
21
-44.7727
0
LINE
8
BLACK
6
CONTINUOUS
10
90.4851
20
-44.7727
11
90.3483
21
-44.3197
  0
ENDSEC
  0
EOF
