  0
SECTION
  2
HEADER
  9
$ANGBASE
  50
0.0
  9
$ANGDIR
  70
  1
  9
$MEASUREMENT
  70
0
  0
ENDSEC
  0
SECTION
  2
TABLES
  0
TABLE
  2
LTYPE
  70
4
  0
LTYPE
  5
40F
  2
CONTINUOUS
  70
0
  3
Solid line
  72
65
  73
0
  40
0.0
  0
LTYPE
  5
410
  2
DASHDOT
 70
0
  3
Dash Dot ____ _ ____ _
 72
65
 73
4
 40
2.0
 49
1.25
 49
-0.25
 49
0.25
 49
-0.25
  0
LTYPE
  5
411
  2
DASHED
 70
0
  3
Dashed __ __ __ __ __
 72
65
 73
2
 40
0.75
 49
0.5
 49
-0.25
  0
LTYPE
  5
43B
  2
DOTTED
 70
0
  3
Dotted .  .  .  .
 72
65
 73
2
 40
0.2
 49
0.0
 49
-0.2
  0
ENDTAB
  0
TABLE
  2
STYLE
  70
4
  0
STYLE
  2
KICAD
  70
0
  40
0
  41
1
  42
1
  50
0
  71
0
  3
isocp.shx
  0
STYLE
  2
KICADB
  70
0
  40
0
  41
1
  42
1
  50
0
  71
0
  3
isocp.shx
  0
STYLE
  2
KICADI
  70
0
  40
0
  41
1
  42
1
  50
15
  71
0
  3
isocp.shx
  0
STYLE
  2
KICADBI
  70
0
  40
0
  41
1
  42
1
  50
15
  71
0
  3
isocp.shx
  0
ENDTAB
  0
TABLE
  2
LAYER
  70
30
  0
LAYER
  2
BLACK
  70
0
  62
7
  6
CONTINUOUS
  0
LAYER
  2
GRAY1
  70
0
  62
251
  6
CONTINUOUS
  0
LAYER
  2
GRAY2
  70
0
  62
8
  6
CONTINUOUS
  0
LAYER
  2
GRAY3
  70
0
  62
9
  6
CONTINUOUS
  0
LAYER
  2
WHITE
  70
0
  62
7
  6
CONTINUOUS
  0
LAYER
  2
LYELLOW
  70
0
  62
51
  6
CONTINUOUS
  0
LAYER
  2
BLUE1
  70
0
  62
178
  6
CONTINUOUS
  0
LAYER
  2
GREEN1
  70
0
  62
98
  6
CONTINUOUS
  0
LAYER
  2
CYAN1
  70
0
  62
138
  6
CONTINUOUS
  0
LAYER
  2
RED1
  70
0
  62
18
  6
CONTINUOUS
  0
LAYER
  2
MAGENTA1
  70
0
  62
228
  6
CONTINUOUS
  0
LAYER
  2
BROWN1
  70
0
  62
58
  6
CONTINUOUS
  0
LAYER
  2
BLUE2
  70
0
  62
5
  6
CONTINUOUS
  0
LAYER
  2
GREEN2
  70
0
  62
3
  6
CONTINUOUS
  0
LAYER
  2
CYAN2
  70
0
  62
4
  6
CONTINUOUS
  0
LAYER
  2
RED2
  70
0
  62
1
  6
CONTINUOUS
  0
LAYER
  2
MAGENTA2
  70
0
  62
6
  6
CONTINUOUS
  0
LAYER
  2
BROWN2
  70
0
  62
54
  6
CONTINUOUS
  0
LAYER
  2
BLUE3
  70
0
  62
171
  6
CONTINUOUS
  0
LAYER
  2
GREEN3
  70
0
  62
91
  6
CONTINUOUS
  0
LAYER
  2
CYAN3
  70
0
  62
131
  6
CONTINUOUS
  0
LAYER
  2
RED3
  70
0
  62
11
  6
CONTINUOUS
  0
LAYER
  2
MAGENTA3
  70
0
  62
221
  6
CONTINUOUS
  0
LAYER
  2
YELLOW3
  70
0
  62
2
  6
CONTINUOUS
  0
LAYER
  2
BLUE4
  70
0
  62
5
  6
CONTINUOUS
  0
LAYER
  2
GREEN4
  70
0
  62
3
  6
CONTINUOUS
  0
LAYER
  2
CYAN4
  70
0
  62
4
  6
CONTINUOUS
  0
LAYER
  2
RED4
  70
0
  62
1
  6
CONTINUOUS
  0
LAYER
  2
MAGENTA4
  70
0
  62
6
  6
CONTINUOUS
  0
LAYER
  2
YELLOW4
  70
0
  62
2
  6
CONTINUOUS
  0
ENDTAB
  0
ENDSEC
  0
SECTION
  2
ENTITIES
0
LINE
8
BLACK
6
CONTINUOUS
10
352.426
20
-30.906
11
352.43
21
-30.9065
0
LINE
8
BLACK
6
CONTINUOUS
10
352.43
20
-30.9065
11
352.435
21
-30.907
0
LINE
8
BLACK
6
CONTINUOUS
10
352.435
20
-30.907
11
352.435
21
-30.9071
0
LINE
8
BLACK
6
CONTINUOUS
10
352.435
20
-30.9071
11
352.435
21
-30.9071
0
LINE
8
BLACK
6
CONTINUOUS
10
352.435
20
-30.9071
11
352.44
21
-30.9085
0
LINE
8
BLACK
6
CONTINUOUS
10
352.44
20
-30.9085
11
352.444
21
-30.9098
0
LINE
8
BLACK
6
CONTINUOUS
10
352.444
20
-30.9098
11
352.445
21
-30.91
0
LINE
8
BLACK
6
CONTINUOUS
10
352.445
20
-30.91
11
352.445
21
-30.9101
0
LINE
8
BLACK
6
CONTINUOUS
10
352.445
20
-30.9101
11
352.449
21
-30.9123
0
LINE
8
BLACK
6
CONTINUOUS
10
352.449
20
-30.9123
11
352.453
21
-30.9145
0
LINE
8
BLACK
6
CONTINUOUS
10
352.453
20
-30.9145
11
352.453
21
-30.9147
0
LINE
8
BLACK
6
CONTINUOUS
10
352.453
20
-30.9147
11
352.454
21
-30.9149
0
LINE
8
BLACK
6
CONTINUOUS
10
352.454
20
-30.9149
11
352.457
21
-30.9178
0
LINE
8
BLACK
6
CONTINUOUS
10
352.457
20
-30.9178
11
352.461
21
-30.9207
0
LINE
8
BLACK
6
CONTINUOUS
10
352.461
20
-30.9207
11
352.461
21
-30.921
0
LINE
8
BLACK
6
CONTINUOUS
10
352.461
20
-30.921
11
352.461
21
-30.9212
0
LINE
8
BLACK
6
CONTINUOUS
10
352.461
20
-30.9212
11
352.464
21
-30.9248
0
LINE
8
BLACK
6
CONTINUOUS
10
352.464
20
-30.9248
11
352.467
21
-30.9283
0
LINE
8
BLACK
6
CONTINUOUS
10
352.467
20
-30.9283
11
352.467
21
-30.9287
0
LINE
8
BLACK
6
CONTINUOUS
10
352.467
20
-30.9287
11
352.467
21
-30.9289
0
LINE
8
BLACK
6
CONTINUOUS
10
352.467
20
-30.9289
11
352.469
21
-30.9329
0
LINE
8
BLACK
6
CONTINUOUS
10
352.469
20
-30.9329
11
352.471
21
-30.937
0
LINE
8
BLACK
6
CONTINUOUS
10
352.471
20
-30.937
11
352.472
21
-30.9374
0
LINE
8
BLACK
6
CONTINUOUS
10
352.472
20
-30.9374
11
352.472
21
-30.9377
0
LINE
8
BLACK
6
CONTINUOUS
10
352.472
20
-30.9377
11
352.473
21
-30.942
0
LINE
8
BLACK
6
CONTINUOUS
10
352.473
20
-30.942
11
352.474
21
-30.9464
0
LINE
8
BLACK
6
CONTINUOUS
10
352.474
20
-30.9464
11
352.475
21
-30.9493
0
LINE
8
BLACK
6
CONTINUOUS
10
352.475
20
-30.9493
11
369.142
21
-121.432
0
LINE
8
BLACK
6
CONTINUOUS
10
369.142
20
-121.432
11
369.143
21
-121.435
0
LINE
8
BLACK
6
CONTINUOUS
10
369.143
20
-121.435
11
369.144
21
-121.44
0
LINE
8
BLACK
6
CONTINUOUS
10
369.144
20
-121.44
11
369.144
21
-121.444
0
LINE
8
BLACK
6
CONTINUOUS
10
369.144
20
-121.444
11
369.144
21
-121.445
0
LINE
8
BLACK
6
CONTINUOUS
10
369.144
20
-121.445
11
369.144
21
-121.445
0
LINE
8
BLACK
6
CONTINUOUS
10
369.144
20
-121.445
11
369.143
21
-121.449
0
LINE
8
BLACK
6
CONTINUOUS
10
369.143
20
-121.449
11
369.143
21
-121.454
0
LINE
8
BLACK
6
CONTINUOUS
10
369.143
20
-121.454
11
369.143
21
-121.454
0
LINE
8
BLACK
6
CONTINUOUS
10
369.143
20
-121.454
11
369.143
21
-121.454
0
LINE
8
BLACK
6
CONTINUOUS
10
369.143
20
-121.454
11
369.141
21
-121.459
0
LINE
8
BLACK
6
CONTINUOUS
10
369.141
20
-121.459
11
369.14
21
-121.464
0
LINE
8
BLACK
6
CONTINUOUS
10
369.14
20
-121.464
11
369.14
21
-121.464
0
LINE
8
BLACK
6
CONTINUOUS
10
369.14
20
-121.464
11
369.14
21
-121.464
0
LINE
8
BLACK
6
CONTINUOUS
10
369.14
20
-121.464
11
369.137
21
-121.468
0
LINE
8
BLACK
6
CONTINUOUS
10
369.137
20
-121.468
11
369.135
21
-121.472
0
LINE
8
BLACK
6
CONTINUOUS
10
369.135
20
-121.472
11
369.135
21
-121.472
0
LINE
8
BLACK
6
CONTINUOUS
10
369.135
20
-121.472
11
369.135
21
-121.472
0
LINE
8
BLACK
6
CONTINUOUS
10
369.135
20
-121.472
11
369.132
21
-121.476
0
LINE
8
BLACK
6
CONTINUOUS
10
369.132
20
-121.476
11
369.129
21
-121.48
0
LINE
8
BLACK
6
CONTINUOUS
10
369.129
20
-121.48
11
369.129
21
-121.48
0
LINE
8
BLACK
6
CONTINUOUS
10
369.129
20
-121.48
11
369.129
21
-121.48
0
LINE
8
BLACK
6
CONTINUOUS
10
369.129
20
-121.48
11
369.125
21
-121.483
0
LINE
8
BLACK
6
CONTINUOUS
10
369.125
20
-121.483
11
369.121
21
-121.486
0
LINE
8
BLACK
6
CONTINUOUS
10
369.121
20
-121.486
11
369.121
21
-121.486
0
LINE
8
BLACK
6
CONTINUOUS
10
369.121
20
-121.486
11
369.121
21
-121.486
0
LINE
8
BLACK
6
CONTINUOUS
10
369.121
20
-121.486
11
369.117
21
-121.488
0
LINE
8
BLACK
6
CONTINUOUS
10
369.117
20
-121.488
11
369.112
21
-121.49
0
LINE
8
BLACK
6
CONTINUOUS
10
369.112
20
-121.49
11
369.112
21
-121.49
0
LINE
8
BLACK
6
CONTINUOUS
10
369.112
20
-121.49
11
369.112
21
-121.491
0
LINE
8
BLACK
6
CONTINUOUS
10
369.112
20
-121.491
11
369.107
21
-121.492
0
LINE
8
BLACK
6
CONTINUOUS
10
369.107
20
-121.492
11
369.103
21
-121.493
0
LINE
8
BLACK
6
CONTINUOUS
10
369.103
20
-121.493
11
369.1
21
-121.493
0
LINE
8
BLACK
6
CONTINUOUS
10
369.1
20
-121.493
11
250.043
21
-142.924
0
LINE
8
BLACK
6
CONTINUOUS
10
250.043
20
-142.924
11
250.041
21
-142.924
0
LINE
8
BLACK
6
CONTINUOUS
10
250.041
20
-142.924
11
250.038
21
-142.925
0
LINE
8
BLACK
6
CONTINUOUS
10
250.038
20
-142.925
11
250.038
21
-142.925
0
LINE
8
BLACK
6
CONTINUOUS
10
250.038
20
-142.925
11
250.036
21
-142.925
0
LINE
8
BLACK
6
CONTINUOUS
10
250.036
20
-142.925
11
250.034
21
-142.925
0
LINE
8
BLACK
6
CONTINUOUS
10
250.034
20
-142.925
11
250.033
21
-142.925
0
LINE
8
BLACK
6
CONTINUOUS
10
250.033
20
-142.925
11
250.03
21
-142.925
0
LINE
8
BLACK
6
CONTINUOUS
10
250.03
20
-142.925
11
250.028
21
-142.925
0
LINE
8
BLACK
6
CONTINUOUS
10
250.028
20
-142.925
11
169.072
21
-142.925
0
LINE
8
BLACK
6
CONTINUOUS
10
169.072
20
-142.925
11
169.07
21
-142.925
0
LINE
8
BLACK
6
CONTINUOUS
10
169.07
20
-142.925
11
169.067
21
-142.925
0
LINE
8
BLACK
6
CONTINUOUS
10
169.067
20
-142.925
11
169.066
21
-142.925
0
LINE
8
BLACK
6
CONTINUOUS
10
169.066
20
-142.925
11
169.064
21
-142.925
0
LINE
8
BLACK
6
CONTINUOUS
10
169.064
20
-142.925
11
169.062
21
-142.925
0
LINE
8
BLACK
6
CONTINUOUS
10
169.062
20
-142.925
11
169.062
21
-142.925
0
LINE
8
BLACK
6
CONTINUOUS
10
169.062
20
-142.925
11
169.059
21
-142.924
0
LINE
8
BLACK
6
CONTINUOUS
10
169.059
20
-142.924
11
169.057
21
-142.924
0
LINE
8
BLACK
6
CONTINUOUS
10
169.057
20
-142.924
11
49.9997
21
-121.493
0
LINE
8
BLACK
6
CONTINUOUS
10
49.9997
20
-121.493
11
49.9971
21
-121.493
0
LINE
8
BLACK
6
CONTINUOUS
10
49.9971
20
-121.493
11
49.9926
21
-121.492
0
LINE
8
BLACK
6
CONTINUOUS
10
49.9926
20
-121.492
11
49.9879
21
-121.491
0
LINE
8
BLACK
6
CONTINUOUS
10
49.9879
20
-121.491
11
49.9878
21
-121.49
0
LINE
8
BLACK
6
CONTINUOUS
10
49.9878
20
-121.49
11
49.9877
21
-121.49
0
LINE
8
BLACK
6
CONTINUOUS
10
49.9877
20
-121.49
11
49.9835
21
-121.488
0
LINE
8
BLACK
6
CONTINUOUS
10
49.9835
20
-121.488
11
49.9791
21
-121.486
0
LINE
8
BLACK
6
CONTINUOUS
10
49.9791
20
-121.486
11
49.979
21
-121.486
0
LINE
8
BLACK
6
CONTINUOUS
10
49.979
20
-121.486
11
49.9789
21
-121.486
0
LINE
8
BLACK
6
CONTINUOUS
10
49.9789
20
-121.486
11
49.9751
21
-121.483
0
LINE
8
BLACK
6
CONTINUOUS
10
49.9751
20
-121.483
11
49.9714
21
-121.48
0
LINE
8
BLACK
6
CONTINUOUS
10
49.9714
20
-121.48
11
49.9713
21
-121.48
0
LINE
8
BLACK
6
CONTINUOUS
10
49.9713
20
-121.48
11
49.9712
21
-121.48
0
LINE
8
BLACK
6
CONTINUOUS
10
49.9712
20
-121.48
11
49.968
21
-121.476
0
LINE
8
BLACK
6
CONTINUOUS
10
49.968
20
-121.476
11
49.965
21
-121.472
0
LINE
8
BLACK
6
CONTINUOUS
10
49.965
20
-121.472
11
49.9649
21
-121.472
0
LINE
8
BLACK
6
CONTINUOUS
10
49.9649
20
-121.472
11
49.9649
21
-121.472
0
LINE
8
BLACK
6
CONTINUOUS
10
49.9649
20
-121.472
11
49.9625
21
-121.468
0
LINE
8
BLACK
6
CONTINUOUS
10
49.9625
20
-121.468
11
49.9602
21
-121.464
0
LINE
8
BLACK
6
CONTINUOUS
10
49.9602
20
-121.464
11
49.9602
21
-121.464
0
LINE
8
BLACK
6
CONTINUOUS
10
49.9602
20
-121.464
11
49.9601
21
-121.464
0
LINE
8
BLACK
6
CONTINUOUS
10
49.9601
20
-121.464
11
49.9586
21
-121.459
0
LINE
8
BLACK
6
CONTINUOUS
10
49.9586
20
-121.459
11
49.9572
21
-121.454
0
LINE
8
BLACK
6
CONTINUOUS
10
49.9572
20
-121.454
11
49.9571
21
-121.454
0
LINE
8
BLACK
6
CONTINUOUS
10
49.9571
20
-121.454
11
49.9571
21
-121.454
0
LINE
8
BLACK
6
CONTINUOUS
10
49.9571
20
-121.454
11
49.9566
21
-121.45
0
LINE
8
BLACK
6
CONTINUOUS
10
49.9566
20
-121.45
11
49.956
21
-121.445
0
LINE
8
BLACK
6
CONTINUOUS
10
49.956
20
-121.445
11
49.956
21
-121.445
0
LINE
8
BLACK
6
CONTINUOUS
10
49.956
20
-121.445
11
49.956
21
-121.444
0
LINE
8
BLACK
6
CONTINUOUS
10
49.956
20
-121.444
11
49.9564
21
-121.44
0
LINE
8
BLACK
6
CONTINUOUS
10
49.9564
20
-121.44
11
49.9568
21
-121.435
0
LINE
8
BLACK
6
CONTINUOUS
10
49.9568
20
-121.435
11
49.9575
21
-121.432
0
LINE
8
BLACK
6
CONTINUOUS
10
49.9575
20
-121.432
11
66.6254
21
-30.9492
0
LINE
8
BLACK
6
CONTINUOUS
10
66.6254
20
-30.9492
11
66.6257
21
-30.9464
0
LINE
8
BLACK
6
CONTINUOUS
10
66.6257
20
-30.9464
11
66.627
21
-30.9421
0
LINE
8
BLACK
6
CONTINUOUS
10
66.627
20
-30.9421
11
66.6283
21
-30.9377
0
LINE
8
BLACK
6
CONTINUOUS
10
66.6283
20
-30.9377
11
66.6285
21
-30.9374
0
LINE
8
BLACK
6
CONTINUOUS
10
66.6285
20
-30.9374
11
66.6286
21
-30.937
0
LINE
8
BLACK
6
CONTINUOUS
10
66.6286
20
-30.937
11
66.6307
21
-30.933
0
LINE
8
BLACK
6
CONTINUOUS
10
66.6307
20
-30.933
11
66.6328
21
-30.9289
0
LINE
8
BLACK
6
CONTINUOUS
10
66.6328
20
-30.9289
11
66.6331
21
-30.9287
0
LINE
8
BLACK
6
CONTINUOUS
10
66.6331
20
-30.9287
11
66.6332
21
-30.9283
0
LINE
8
BLACK
6
CONTINUOUS
10
66.6332
20
-30.9283
11
66.6361
21
-30.9248
0
LINE
8
BLACK
6
CONTINUOUS
10
66.6361
20
-30.9248
11
66.639
21
-30.9212
0
LINE
8
BLACK
6
CONTINUOUS
10
66.639
20
-30.9212
11
66.6392
21
-30.921
0
LINE
8
BLACK
6
CONTINUOUS
10
66.6392
20
-30.921
11
66.6395
21
-30.9207
0
LINE
8
BLACK
6
CONTINUOUS
10
66.6395
20
-30.9207
11
66.643
21
-30.9178
0
LINE
8
BLACK
6
CONTINUOUS
10
66.643
20
-30.9178
11
66.6465
21
-30.9149
0
LINE
8
BLACK
6
CONTINUOUS
10
66.6465
20
-30.9149
11
66.6468
21
-30.9147
0
LINE
8
BLACK
6
CONTINUOUS
10
66.6468
20
-30.9147
11
66.6471
21
-30.9145
0
LINE
8
BLACK
6
CONTINUOUS
10
66.6471
20
-30.9145
11
66.6511
21
-30.9123
0
LINE
8
BLACK
6
CONTINUOUS
10
66.6511
20
-30.9123
11
66.6551
21
-30.9101
0
LINE
8
BLACK
6
CONTINUOUS
10
66.6551
20
-30.9101
11
66.6555
21
-30.91
0
LINE
8
BLACK
6
CONTINUOUS
10
66.6555
20
-30.91
11
66.6558
21
-30.9098
0
LINE
8
BLACK
6
CONTINUOUS
10
66.6558
20
-30.9098
11
66.6602
21
-30.9085
0
LINE
8
BLACK
6
CONTINUOUS
10
66.6602
20
-30.9085
11
66.6645
21
-30.9071
0
LINE
8
BLACK
6
CONTINUOUS
10
66.6645
20
-30.9071
11
66.6649
21
-30.9071
0
LINE
8
BLACK
6
CONTINUOUS
10
66.6649
20
-30.9071
11
66.6652
21
-30.907
0
LINE
8
BLACK
6
CONTINUOUS
10
66.6652
20
-30.907
11
66.6697
21
-30.9065
0
LINE
8
BLACK
6
CONTINUOUS
10
66.6697
20
-30.9065
11
66.6743
21
-30.906
0
LINE
8
BLACK
6
CONTINUOUS
10
66.6743
20
-30.906
11
66.6771
21
-30.9062
0
LINE
8
BLACK
6
CONTINUOUS
10
66.6771
20
-30.9062
11
147.635
21
-30.9062
0
LINE
8
BLACK
6
CONTINUOUS
10
147.635
20
-30.9062
11
147.638
21
-30.906
0
LINE
8
BLACK
6
CONTINUOUS
10
147.638
20
-30.906
11
147.643
21
-30.9065
0
LINE
8
BLACK
6
CONTINUOUS
10
147.643
20
-30.9065
11
147.647
21
-30.907
0
LINE
8
BLACK
6
CONTINUOUS
10
147.647
20
-30.907
11
147.648
21
-30.9071
0
LINE
8
BLACK
6
CONTINUOUS
10
147.648
20
-30.9071
11
147.648
21
-30.9071
0
LINE
8
BLACK
6
CONTINUOUS
10
147.648
20
-30.9071
11
147.652
21
-30.9085
0
LINE
8
BLACK
6
CONTINUOUS
10
147.652
20
-30.9085
11
147.657
21
-30.9098
0
LINE
8
BLACK
6
CONTINUOUS
10
147.657
20
-30.9098
11
147.657
21
-30.91
0
LINE
8
BLACK
6
CONTINUOUS
10
147.657
20
-30.91
11
147.657
21
-30.91
0
LINE
8
BLACK
6
CONTINUOUS
10
147.657
20
-30.91
11
147.661
21
-30.9122
0
LINE
8
BLACK
6
CONTINUOUS
10
147.661
20
-30.9122
11
147.665
21
-30.9145
0
LINE
8
BLACK
6
CONTINUOUS
10
147.665
20
-30.9145
11
147.668
21
-30.9162
0
LINE
8
BLACK
6
CONTINUOUS
10
147.668
20
-30.9162
11
192.897
21
-61.8625
0
LINE
8
BLACK
6
CONTINUOUS
10
192.897
20
-61.8625
11
226.203
21
-61.8625
0
LINE
8
BLACK
6
CONTINUOUS
10
226.203
20
-61.8625
11
271.432
21
-30.9162
0
LINE
8
BLACK
6
CONTINUOUS
10
271.432
20
-30.9162
11
271.435
21
-30.9145
0
LINE
8
BLACK
6
CONTINUOUS
10
271.435
20
-30.9145
11
271.439
21
-30.9123
0
LINE
8
BLACK
6
CONTINUOUS
10
271.439
20
-30.9123
11
271.443
21
-30.91
0
LINE
8
BLACK
6
CONTINUOUS
10
271.443
20
-30.91
11
271.443
21
-30.91
0
LINE
8
BLACK
6
CONTINUOUS
10
271.443
20
-30.91
11
271.443
21
-30.9098
0
LINE
8
BLACK
6
CONTINUOUS
10
271.443
20
-30.9098
11
271.448
21
-30.9085
0
LINE
8
BLACK
6
CONTINUOUS
10
271.448
20
-30.9085
11
271.452
21
-30.9071
0
LINE
8
BLACK
6
CONTINUOUS
10
271.452
20
-30.9071
11
271.452
21
-30.9071
0
LINE
8
BLACK
6
CONTINUOUS
10
271.452
20
-30.9071
11
271.453
21
-30.907
0
LINE
8
BLACK
6
CONTINUOUS
10
271.453
20
-30.907
11
271.457
21
-30.9065
0
LINE
8
BLACK
6
CONTINUOUS
10
271.457
20
-30.9065
11
271.462
21
-30.906
0
LINE
8
BLACK
6
CONTINUOUS
10
271.462
20
-30.906
11
271.465
21
-30.9062
0
LINE
8
BLACK
6
CONTINUOUS
10
271.465
20
-30.9062
11
352.423
21
-30.9062
0
LINE
8
BLACK
6
CONTINUOUS
10
352.423
20
-30.9062
11
352.426
21
-30.906
0
LINE
8
BLACK
6
CONTINUOUS
10
192.881
20
-61.9627
11
192.876
21
-61.9622
0
LINE
8
BLACK
6
CONTINUOUS
10
192.876
20
-61.9622
11
192.871
21
-61.9618
0
LINE
8
BLACK
6
CONTINUOUS
10
192.871
20
-61.9618
11
192.871
21
-61.9617
0
LINE
8
BLACK
6
CONTINUOUS
10
192.871
20
-61.9617
11
192.871
21
-61.9617
0
LINE
8
BLACK
6
CONTINUOUS
10
192.871
20
-61.9617
11
192.867
21
-61.9603
0
LINE
8
BLACK
6
CONTINUOUS
10
192.867
20
-61.9603
11
192.862
21
-61.9589
0
LINE
8
BLACK
6
CONTINUOUS
10
192.862
20
-61.9589
11
192.862
21
-61.9588
0
LINE
8
BLACK
6
CONTINUOUS
10
192.862
20
-61.9588
11
192.862
21
-61.9587
0
LINE
8
BLACK
6
CONTINUOUS
10
192.862
20
-61.9587
11
192.857
21
-61.9565
0
LINE
8
BLACK
6
CONTINUOUS
10
192.857
20
-61.9565
11
192.853
21
-61.9543
0
LINE
8
BLACK
6
CONTINUOUS
10
192.853
20
-61.9543
11
192.851
21
-61.9525
0
LINE
8
BLACK
6
CONTINUOUS
10
192.851
20
-61.9525
11
147.622
21
-31.0062
0
LINE
8
BLACK
6
CONTINUOUS
10
147.622
20
-31.0062
11
66.7166
21
-31.0062
0
LINE
8
BLACK
6
CONTINUOUS
10
66.7166
20
-31.0062
11
50.0645
21
-121.403
0
LINE
8
BLACK
6
CONTINUOUS
10
50.0645
20
-121.403
11
169.073
21
-142.825
0
LINE
8
BLACK
6
CONTINUOUS
10
169.073
20
-142.825
11
250.027
21
-142.825
0
LINE
8
BLACK
6
CONTINUOUS
10
250.027
20
-142.825
11
369.035
21
-121.403
0
LINE
8
BLACK
6
CONTINUOUS
10
369.035
20
-121.403
11
352.383
21
-31.0062
0
LINE
8
BLACK
6
CONTINUOUS
10
352.383
20
-31.0062
11
271.478
21
-31.0062
0
LINE
8
BLACK
6
CONTINUOUS
10
271.478
20
-31.0062
11
226.249
21
-61.9525
0
LINE
8
BLACK
6
CONTINUOUS
10
226.249
20
-61.9525
11
226.247
21
-61.9543
0
LINE
8
BLACK
6
CONTINUOUS
10
226.247
20
-61.9543
11
226.242
21
-61.9565
0
LINE
8
BLACK
6
CONTINUOUS
10
226.242
20
-61.9565
11
226.238
21
-61.9587
0
LINE
8
BLACK
6
CONTINUOUS
10
226.238
20
-61.9587
11
226.238
21
-61.9588
0
LINE
8
BLACK
6
CONTINUOUS
10
226.238
20
-61.9588
11
226.238
21
-61.9589
0
LINE
8
BLACK
6
CONTINUOUS
10
226.238
20
-61.9589
11
226.233
21
-61.9603
0
LINE
8
BLACK
6
CONTINUOUS
10
226.233
20
-61.9603
11
226.229
21
-61.9617
0
LINE
8
BLACK
6
CONTINUOUS
10
226.229
20
-61.9617
11
226.229
21
-61.9617
0
LINE
8
BLACK
6
CONTINUOUS
10
226.229
20
-61.9617
11
226.229
21
-61.9618
0
LINE
8
BLACK
6
CONTINUOUS
10
226.229
20
-61.9618
11
226.224
21
-61.9622
0
LINE
8
BLACK
6
CONTINUOUS
10
226.224
20
-61.9622
11
226.219
21
-61.9627
0
LINE
8
BLACK
6
CONTINUOUS
10
226.219
20
-61.9627
11
226.217
21
-61.9625
0
LINE
8
BLACK
6
CONTINUOUS
10
226.217
20
-61.9625
11
192.883
21
-61.9625
0
LINE
8
BLACK
6
CONTINUOUS
10
192.883
20
-61.9625
11
192.881
21
-61.9627
  0
ENDSEC
  0
EOF
