0
SECTION
2
HEADER
9
$INSUNITS
70
4
9
$ACADVER
1
AC1014
9
$HANDSEED
5
FFFF
0
ENDSEC
0
SECTION
2
TABLES
0
TABLE
2
VPORT
5
8
100
AcDbSymbolTable
0
ENDTAB
0
TABLE
2
LTYPE
5
5
100
AcDbSymbolTable
0
LTYPE
5
14
100
AcDbSymbolTableRecord
100
AcDbLinetypeTableRecord
2
BYBLOCK
70
0
0
LTYPE
5
15
100
AcDbSymbolTableRecord
100
AcDbLinetypeTableRecord
2
BYLAYER
70
0
0
ENDTAB
0
TABLE
2
LAYER
5
2
100
AcDbSymbolTable
70
2
0
LAYER
5
50
100
AcDbSymbolTableRecord
100
AcDbLayerTableRecord
2
0
70
0
6
CONTINUOUS
0
ENDTAB
0
TABLE
2
STYLE
5
3
100
AcDbSymbolTable
70
1
0
STYLE
5
11
100
AcDbSymbolTableRecord
100
AcDbTextStyleTableRecord
2
STANDARD
70
0
0
ENDTAB
0
TABLE
2
VIEW
5
6
100
AcDbSymbolTable
70
0
0
ENDTAB
0
TABLE
2
UCS
5
7
100
AcDbSymbolTable
70
0
0
ENDTAB
0
TABLE
2
APPID
5
9
100
AcDbSymbolTable
70
2
0
APPID
5
12
100
AcDbSymbolTableRecord
100
AcDbRegAppTableRecord
2
ACAD
70
0
0
ENDTAB
0
TABLE
2
DIMSTYLE
5
A
100
AcDbSymbolTable
70
1
0
ENDTAB
0
TABLE
2
BLOCK_RECORD
5
1
100
AcDbSymbolTable
70
1
0
BLOCK_RECORD
5
1F
100
AcDbSymbolTableRecord
100
AcDbBlockTableRecord
2
*MODEL_SPACE
0
BLOCK_RECORD
5
1B
100
AcDbSymbolTableRecord
100
AcDbBlockTableRecord
2
*PAPER_SPACE
0
ENDTAB
0
ENDSEC
0
SECTION
2
BLOCKS
0
BLOCK
5
20
100
AcDbEntity
100
AcDbBlockBegin
2
*MODEL_SPACE
0
ENDBLK
5
21
100
AcDbEntity
100
AcDbBlockEnd
0
BLOCK
5
1C
100
AcDbEntity
100
AcDbBlockBegin
2
*PAPER_SPACE
0
ENDBLK
5
1D
100
AcDbEntity
100
AcDbBlockEnd
0
ENDSEC
0
SECTION
2
ENTITIES
0
LWPOLYLINE
5
100
100
AcDbEntity
8
0
100
AcDbPolyline
90
4
70
1
43
0.0
10
43.486900000000006
20
75.294799999999995
10
41.055900000000001
20
89.082000000000008
10
54.843200000000003
20
91.512699999999995
10
57.275199999999998
20
77.725399999999993
0
LWPOLYLINE
5
101
100
AcDbEntity
8
0
100
AcDbPolyline
90
4
70
1
43
0.0
10
5.1883000000000017
20
73.087100000000021
10
18.977
20
75.5167
10
21.407800000000002
20
61.730499999999999
10
7.6191899999999997
20
59.299800000000005
0
LWPOLYLINE
5
102
100
AcDbEntity
8
0
100
AcDbPolyline
90
4
70
1
43
0.0
10
60.643200000000007
20
87.6999
10
74.430499999999995
20
90.130499999999998
10
76.861500000000007
20
76.344600000000014
10
63.074200000000005
20
73.914000000000016
0
LWPOLYLINE
5
103
100
AcDbEntity
8
0
100
AcDbPolyline
90
4
70
1
43
0.0
10
50.091600000000007
20
8.7560500000000001
10
36.304400000000001
20
6.3251999999999997
10
33.8735
20
20.112500000000001
10
47.661000000000008
20
22.543299999999999
0
LWPOLYLINE
5
104
100
AcDbEntity
8
0
100
AcDbPolyline
90
4
70
1
43
0.0
10
53.411299999999997
20
19.012799999999999
10
50.979200000000006
20
32.8001
10
64.767899999999997
20
35.230899999999998
10
67.198499999999996
20
21.4437
0
LWPOLYLINE
5
105
100
AcDbEntity
8
0
100
AcDbPolyline
90
4
70
1
43
0.0
10
44.3523
20
41.303899999999999
10
46.784300000000002
20
27.516700000000004
10
32.997100000000003
20
25.084400000000002
10
30.566300000000002
20
38.872900000000001
0
LWPOLYLINE
5
106
100
AcDbEntity
8
0
100
AcDbPolyline
90
4
70
1
43
0.0
10
90.932700000000011
20
25.628700000000002
10
88.5017
20
39.415900000000001
10
102.28900000000002
20
41.846899999999998
10
104.72000000000001
20
28.059600000000003
0
LWPOLYLINE
5
107
100
AcDbEntity
8
0
100
AcDbPolyline
90
4
70
1
43
0.0
10
14.235100000000001
20
21.777100000000004
10
11.804300000000001
20
35.564599999999999
10
25.591600000000003
20
37.996600000000001
10
28.023800000000001
20
24.208000000000002
0
LWPOLYLINE
5
108
100
AcDbEntity
8
0
100
AcDbPolyline
90
4
70
1
43
0.0
10
17.543800000000005
20
3.0165299999999995
10
15.1129
20
16.803799999999999
10
28.900200000000002
20
19.234600000000004
10
31.331100000000003
20
5.4473800000000008
0
LWPOLYLINE
5
109
100
AcDbEntity
8
0
100
AcDbPolyline
90
4
70
1
43
0.0
10
47.671900000000001
20
51.560600000000001
10
61.459200000000003
20
53.991600000000005
10
63.891199999999998
20
40.2057
10
50.10260000000001
20
37.773299999999999
0
LWPOLYLINE
5
110
100
AcDbEntity
8
0
100
AcDbPolyline
90
4
70
1
43
0.0
10
117.74100000000001
20
63.9163
10
120.17299999999999
20
50.129000000000005
10
106.38500000000001
20
47.698
10
103.95400000000001
20
61.485300000000009
0
LWPOLYLINE
5
111
100
AcDbEntity
8
0
100
AcDbPolyline
90
4
70
1
43
0.0
10
66.382900000000006
20
55.151900000000005
10
63.951900000000002
20
68.939099999999996
10
77.739200000000011
20
71.370100000000008
10
80.170200000000008
20
57.582900000000009
0
LWPOLYLINE
5
112
100
AcDbEntity
8
0
100
AcDbPolyline
90
4
70
1
43
0.0
10
10.927899999999999
20
40.537700000000001
10
8.4969699999999992
20
54.32500000000001
10
22.284300000000002
20
56.755899999999997
10
24.715100000000003
20
42.968699999999998
0
LWPOLYLINE
5
113
100
AcDbEntity
8
0
100
AcDbPolyline
90
4
70
1
43
0.0
10
60.58250000000001
20
58.965000000000003
10
46.795299999999997
20
56.534000000000006
10
44.363200000000006
20
70.322699999999998
10
58.151900000000005
20
72.753399999999999
0
LWPOLYLINE
5
114
100
AcDbEntity
8
0
100
AcDbPolyline
90
4
70
1
43
0.0
10
29.688500000000001
20
43.846400000000003
10
27.257600000000004
20
57.633700000000005
10
41.045000000000009
20
60.064600000000006
10
43.475600000000007
20
46.2774
0
LWPOLYLINE
5
115
100
AcDbEntity
8
0
100
AcDbPolyline
90
4
70
1
43
0.0
10
67.259200000000007
20
50.178400000000003
10
81.046499999999995
20
52.610799999999998
10
83.47750000000002
20
38.82350000000001
10
69.690200000000004
20
36.391100000000009
0
LWPOLYLINE
5
116
100
AcDbEntity
8
0
100
AcDbPolyline
90
4
70
1
43
0.0
10
85.192999999999998
20
58.176600000000001
10
98.9803
20
60.607600000000005
10
101.41100000000002
20
46.8217
10
87.625399999999999
20
44.390700000000002
0
LWPOLYLINE
5
117
100
AcDbEntity
8
0
100
AcDbPolyline
90
4
70
1
43
0.0
10
123.48
20
31.368300000000001
10
109.69300000000001
20
28.937400000000004
10
107.262
20
42.724600000000009
10
121.04799999999999
20
45.1556
0
LWPOLYLINE
5
118
100
AcDbEntity
8
0
100
AcDbPolyline
90
4
70
1
43
0.0
10
37.7363
20
78.825000000000003
10
40.168300000000002
20
65.037800000000004
10
26.381200000000003
20
62.607100000000003
10
23.950299999999999
20
76.394400000000005
0
LWPOLYLINE
5
119
100
AcDbEntity
8
0
100
AcDbPolyline
90
4
70
1
43
0.0
10
98.104000000000013
20
65.580699999999993
10
84.316699999999997
20
63.150000000000006
10
81.8857
20
76.938700000000011
10
95.673000000000002
20
79.369399999999999
0
LWPOLYLINE
5
120
100
AcDbEntity
8
0
100
AcDbPolyline
90
4
70
1
43
0.0
10
116.86500000000001
20
68.889399999999995
10
103.07700000000003
20
66.458699999999993
10
100.646
20
80.246000000000009
10
114.43200000000002
20
82.676599999999993
0
LINE
5
121
100
AcDbEntity
8
0
100
AcDbLine
10
-20
20
1.75
30
0
11
-20
21
22.5
31
0
0
LWPOLYLINE
5
122
100
AcDbEntity
8
0
100
AcDbPolyline
90
4
70
1
43
0.0
10
-141.411
20
46.8217
10
-127.6254
20
44.390700000000002
10
-125.193
20
58.176600000000001
10
-138.9803
20
60.607600000000005
0
LWPOLYLINE
5
123
100
AcDbEntity
8
0
100
AcDbPolyline
90
4
70
1
43
0.0
10
-143.95400000000001
20
61.485300000000009
10
-157.74100000000001
20
63.9163
10
-160.173
20
50.129000000000005
10
-146.38499999999999
20
47.698
0
LWPOLYLINE
5
124
100
AcDbEntity
8
0
100
AcDbPolyline
90
4
70
1
43
0.0
10
-128.5017
20
39.415900000000001
10
-142.28900000000002
20
41.846899999999998
10
-144.72000000000003
20
28.059600000000003
10
-130.93270000000001
20
25.628700000000002
0
LWPOLYLINE
5
125
100
AcDbEntity
8
0
100
AcDbPolyline
90
4
70
1
43
0.0
10
-104.76790000000001
20
35.230899999999998
10
-107.19850000000001
20
21.4437
10
-93.411299999999997
20
19.012799999999999
10
-90.979200000000006
20
32.8001
0
LWPOLYLINE
5
126
100
AcDbEntity
8
0
100
AcDbPolyline
90
4
70
1
43
0.0
10
-72.997100000000017
20
25.084400000000002
10
-70.566299999999998
20
38.872900000000001
10
-84.352300000000014
20
41.303899999999999
10
-86.784300000000002
20
27.516700000000004
0
LWPOLYLINE
5
127
100
AcDbEntity
8
0
100
AcDbPolyline
90
4
70
1
43
0.0
10
-103.0742
20
73.914000000000016
10
-100.64320000000001
20
87.6999
10
-114.43049999999999
20
90.130499999999998
10
-116.86150000000001
20
76.344600000000014
0
LWPOLYLINE
5
128
100
AcDbEntity
8
0
100
AcDbPolyline
90
4
70
1
43
0.0
10
-55.112899999999996
20
16.803799999999999
10
-68.900199999999998
20
19.234600000000004
10
-71.331100000000006
20
5.4473800000000008
10
-57.543800000000005
20
3.0165299999999995
0
LWPOLYLINE
5
129
100
AcDbEntity
8
0
100
AcDbPolyline
90
4
70
1
43
0.0
10
-87.661000000000016
20
22.543299999999999
10
-90.091600000000014
20
8.7560500000000019
10
-76.304400000000001
20
6.3251999999999997
10
-73.873499999999993
20
20.112500000000001
0
LWPOLYLINE
5
130
100
AcDbEntity
8
0
100
AcDbPolyline
90
4
70
1
43
0.0
10
-161.04799999999997
20
45.1556
10
-163.47999999999999
20
31.368300000000001
10
-149.69300000000001
20
28.937400000000004
10
-147.262
20
42.724600000000009
0
LWPOLYLINE
5
131
100
AcDbEntity
8
0
100
AcDbPolyline
90
4
70
1
43
0.0
10
-103.8912
20
40.2057
10
-90.10260000000001
20
37.773299999999999
10
-87.671899999999994
20
51.560600000000001
10
-101.45920000000001
20
53.991600000000005
0
LWPOLYLINE
5
132
100
AcDbEntity
8
0
100
AcDbPolyline
90
4
70
1
43
0.0
10
-69.688500000000005
20
43.846400000000003
10
-67.257599999999996
20
57.633700000000005
10
-81.045000000000016
20
60.064600000000006
10
-83.475600000000014
20
46.2774
0
LWPOLYLINE
5
133
100
AcDbEntity
8
0
100
AcDbPolyline
90
4
70
1
43
0.0
10
-62.284300000000002
20
56.755899999999997
10
-64.715100000000007
20
42.968699999999998
10
-50.927900000000001
20
40.537700000000001
10
-48.496969999999997
20
54.32500000000001
0
LWPOLYLINE
5
134
100
AcDbEntity
8
0
100
AcDbPolyline
90
4
70
1
43
0.0
10
-86.795299999999997
20
56.534000000000006
10
-84.363200000000006
20
70.322699999999998
10
-98.151900000000012
20
72.753399999999999
10
-100.58250000000001
20
58.965000000000003
0
LWPOLYLINE
5
135
100
AcDbEntity
8
0
100
AcDbPolyline
90
4
70
1
43
0.0
10
-68.023800000000008
20
24.208000000000002
10
-54.235100000000003
20
21.777100000000004
10
-51.804300000000005
20
35.564599999999999
10
-65.5916
20
37.996600000000001
0
LWPOLYLINE
5
136
100
AcDbEntity
8
0
100
AcDbPolyline
90
4
70
1
43
0.0
10
-121.04649999999999
20
52.610799999999998
10
-123.47750000000002
20
38.82350000000001
10
-109.6902
20
36.391100000000009
10
-107.25920000000002
20
50.178400000000003
0
LWPOLYLINE
5
137
100
AcDbEntity
8
0
100
AcDbPolyline
90
4
70
1
43
0.0
10
-63.950299999999999
20
76.394400000000005
10
-77.7363
20
78.825000000000003
10
-80.168300000000002
20
65.037800000000004
10
-66.381200000000007
20
62.607100000000003
0
LWPOLYLINE
5
138
100
AcDbEntity
8
0
100
AcDbPolyline
90
4
70
1
43
0.0
10
-61.407800000000002
20
61.730499999999999
10
-47.619189999999996
20
59.299800000000005
10
-45.188300000000005
20
73.087100000000021
10
-58.977000000000004
20
75.5167
0
LWPOLYLINE
5
139
100
AcDbEntity
8
0
100
AcDbPolyline
90
4
70
1
43
0.0
10
-106.38290000000001
20
55.151900000000005
10
-103.95189999999999
20
68.939099999999996
10
-117.73920000000001
20
71.370100000000008
10
-120.17020000000001
20
57.582900000000009
0
LWPOLYLINE
5
140
100
AcDbEntity
8
0
100
AcDbPolyline
90
4
70
1
43
0.0
10
-140.64600000000002
20
80.246000000000009
10
-154.43200000000002
20
82.676599999999993
10
-156.86500000000001
20
68.889399999999995
10
-143.07700000000003
20
66.458699999999993
0
LWPOLYLINE
5
141
100
AcDbEntity
8
0
100
AcDbPolyline
90
4
70
1
43
0.0
10
-138.10400000000001
20
65.580699999999993
10
-124.3167
20
63.150000000000006
10
-121.8857
20
76.938700000000011
10
-135.673
20
79.369399999999999
0
LWPOLYLINE
5
142
100
AcDbEntity
8
0
100
AcDbPolyline
90
4
70
1
43
0.0
10
-81.055899999999994
20
89.082000000000008
10
-94.843199999999996
20
91.512699999999995
10
-97.275199999999998
20
77.725399999999993
10
-83.48690000000002
20
75.294799999999995
0
ENDSEC
0
SECTION
2
OBJECTS
0
DICTIONARY
5
C
100
AcDbDictionary
3
ACAD_GROUP
350
D
3
ACAD_MLINESTYLE
350
17
0
DICTIONARY
5
D
100
AcDbDictionary
0
DICTIONARY
5
1A
330
C
100
AcDbDictionary
0
DICTIONARY
5
17
100
AcDbDictionary
0
ENDSEC
0
EOF
